M48
; DRILL file {KiCad (5.1.7-0-10_14)} date Wednesday, October 07, 2020 at 07:14:27 PM
; FORMAT={-:-/ absolute / inch / decimal}
; #@! TF.CreationDate,2020-10-07T19:14:27-07:00
; #@! TF.GenerationSoftware,Kicad,Pcbnew,(5.1.7-0-10_14)
; #@! TF.FileFunction,Plated,1,2,PTH
FMAT,2
INCH
T1C0.0315
T2C0.0394
T3C0.0472
%
G90
G05
T1
X4.005Y-1.5
X4.005Y-1.6969
X3.2516Y-2.03
X3.35Y-2.03
X3.48Y-2.36
X3.78Y-2.36
X3.5431Y-1.945
X3.74Y-1.945
X3.48Y-2.17
X3.78Y-2.17
X2.78Y-1.5
X2.78Y-1.6969
T2
X3.05Y-1.8
X3.1Y-1.6
X3.15Y-1.8
X3.2Y-1.6
X3.25Y-1.8
X3.3Y-1.6
X3.35Y-1.8
X3.4Y-1.6
X3.45Y-1.8
X3.5Y-1.6
X3.55Y-1.8
X3.6Y-1.6
X3.65Y-1.8
X3.7Y-1.6
X3.75Y-1.8
X4.25Y-2.075
X4.25Y-2.175
X2.525Y-1.72
X2.525Y-1.82
X4.245Y-1.72
X4.245Y-1.82
X2.525Y-2.075
X2.525Y-2.175
X3.96Y-2.39
X4.06Y-2.39
T3
X2.81Y-2.16
X3.0069Y-2.16
T0
M30
