%TF.GenerationSoftware,KiCad,Pcbnew,(5.1.7-0-10_14)*%
%TF.CreationDate,2020-10-07T19:14:23-07:00*%
%TF.ProjectId,PedalBoardStereoAmpTDA7297,50656461-6c42-46f6-9172-645374657265,rev?*%
%TF.SameCoordinates,Original*%
%TF.FileFunction,Soldermask,Bot*%
%TF.FilePolarity,Negative*%
%FSLAX46Y46*%
G04 Gerber Fmt 4.6, Leading zero omitted, Abs format (unit mm)*
G04 Created by KiCad (PCBNEW (5.1.7-0-10_14)) date 2020-10-07 19:14:23*
%MOMM*%
%LPD*%
G01*
G04 APERTURE LIST*
%ADD10C,2.100000*%
%ADD11O,1.700000X1.700000*%
%ADD12R,1.700000X1.700000*%
%ADD13O,1.600000X1.600000*%
%ADD14C,1.600000*%
%ADD15C,2.400000*%
%ADD16R,2.400000X2.400000*%
%ADD17O,1.800000X1.800000*%
%ADD18R,1.800000X1.800000*%
%ADD19R,1.600000X1.600000*%
G04 APERTURE END LIST*
D10*
%TO.C,H4*%
X107950000Y-60960000D03*
%TD*%
%TO.C,H3*%
X107950000Y-38100000D03*
%TD*%
%TO.C,H2*%
X63500000Y-60960000D03*
%TD*%
%TO.C,H1*%
X63500000Y-38100000D03*
%TD*%
D11*
%TO.C,J5*%
X100584000Y-60706000D03*
D12*
X103124000Y-60706000D03*
%TD*%
D13*
%TO.C,R2*%
X96012000Y-59944000D03*
D14*
X88392000Y-59944000D03*
%TD*%
D13*
%TO.C,R1*%
X88392000Y-55118000D03*
D14*
X96012000Y-55118000D03*
%TD*%
%TO.C,C5*%
X101727000Y-43100000D03*
X101727000Y-38100000D03*
%TD*%
%TO.C,C4*%
X70612000Y-43100000D03*
X70612000Y-38100000D03*
%TD*%
%TO.C,C2*%
X89996000Y-49403000D03*
X94996000Y-49403000D03*
%TD*%
D15*
%TO.C,C1*%
X76374000Y-54864000D03*
D16*
X71374000Y-54864000D03*
%TD*%
D17*
%TO.C,U1*%
X95250000Y-45720000D03*
X93980000Y-40640000D03*
X92710000Y-45720000D03*
X91440000Y-40640000D03*
X90170000Y-45720000D03*
X88900000Y-40640000D03*
X87630000Y-45720000D03*
X86360000Y-40640000D03*
X85090000Y-45720000D03*
X83820000Y-40640000D03*
X82550000Y-45720000D03*
X81280000Y-40640000D03*
X80010000Y-45720000D03*
X78740000Y-40640000D03*
D18*
X77470000Y-45720000D03*
%TD*%
D11*
%TO.C,J4*%
X107823000Y-43688000D03*
D12*
X107823000Y-46228000D03*
%TD*%
D11*
%TO.C,J3*%
X107950000Y-52705000D03*
D12*
X107950000Y-55245000D03*
%TD*%
D11*
%TO.C,J2*%
X64135000Y-43688000D03*
D12*
X64135000Y-46228000D03*
%TD*%
D11*
%TO.C,J1*%
X64135000Y-52705000D03*
D12*
X64135000Y-55245000D03*
%TD*%
D14*
%TO.C,C3*%
X82590000Y-51562000D03*
D19*
X85090000Y-51562000D03*
%TD*%
M02*
