%TF.GenerationSoftware,KiCad,Pcbnew,(5.1.9-0-10_14)*%
%TF.CreationDate,2021-01-04T15:57:10-08:00*%
%TF.ProjectId,PedalBoardStereoAmpTDA7297,50656461-6c42-46f6-9172-645374657265,rev?*%
%TF.SameCoordinates,Original*%
%TF.FileFunction,Legend,Top*%
%TF.FilePolarity,Positive*%
%FSLAX46Y46*%
G04 Gerber Fmt 4.6, Leading zero omitted, Abs format (unit mm)*
G04 Created by KiCad (PCBNEW (5.1.9-0-10_14)) date 2021-01-04 15:57:10*
%MOMM*%
%LPD*%
G01*
G04 APERTURE LIST*
%ADD10C,0.300000*%
%ADD11C,0.150000*%
%ADD12C,0.120000*%
G04 APERTURE END LIST*
D10*
X81891285Y-60876571D02*
X81891285Y-59376571D01*
X82605571Y-60876571D02*
X82605571Y-59376571D01*
X83462714Y-60876571D01*
X83462714Y-59376571D01*
X71858285Y-60495571D02*
X71858285Y-58995571D01*
X72572571Y-60495571D02*
X72572571Y-58995571D01*
X73429714Y-60495571D01*
X73429714Y-58995571D01*
D11*
X82875380Y-61285476D02*
X82399190Y-61618809D01*
X82875380Y-61856904D02*
X81875380Y-61856904D01*
X81875380Y-61475952D01*
X81923000Y-61380714D01*
X81970619Y-61333095D01*
X82065857Y-61285476D01*
X82208714Y-61285476D01*
X82303952Y-61333095D01*
X82351571Y-61380714D01*
X82399190Y-61475952D01*
X82399190Y-61856904D01*
X80335380Y-61412476D02*
X80335380Y-61888666D01*
X79335380Y-61888666D01*
X72080380Y-61285476D02*
X71604190Y-61618809D01*
X72080380Y-61856904D02*
X71080380Y-61856904D01*
X71080380Y-61475952D01*
X71128000Y-61380714D01*
X71175619Y-61333095D01*
X71270857Y-61285476D01*
X71413714Y-61285476D01*
X71508952Y-61333095D01*
X71556571Y-61380714D01*
X71604190Y-61475952D01*
X71604190Y-61856904D01*
X74620380Y-61285476D02*
X74620380Y-61761666D01*
X73620380Y-61761666D01*
X80041714Y-59634380D02*
X79470285Y-59634380D01*
X79756000Y-59634380D02*
X79756000Y-58634380D01*
X79660761Y-58777238D01*
X79565523Y-58872476D01*
X79470285Y-58920095D01*
X90963714Y-61539380D02*
X90392285Y-61539380D01*
X90678000Y-61539380D02*
X90678000Y-60539380D01*
X90582761Y-60682238D01*
X90487523Y-60777476D01*
X90392285Y-60825095D01*
X93527523Y-61825142D02*
X93479904Y-61872761D01*
X93337047Y-61920380D01*
X93241809Y-61920380D01*
X93098952Y-61872761D01*
X93003714Y-61777523D01*
X92956095Y-61682285D01*
X92908476Y-61491809D01*
X92908476Y-61348952D01*
X92956095Y-61158476D01*
X93003714Y-61063238D01*
X93098952Y-60968000D01*
X93241809Y-60920380D01*
X93337047Y-60920380D01*
X93479904Y-60968000D01*
X93527523Y-61015619D01*
X101147523Y-61825142D02*
X101099904Y-61872761D01*
X100957047Y-61920380D01*
X100861809Y-61920380D01*
X100718952Y-61872761D01*
X100623714Y-61777523D01*
X100576095Y-61682285D01*
X100528476Y-61491809D01*
X100528476Y-61348952D01*
X100576095Y-61158476D01*
X100623714Y-61063238D01*
X100718952Y-60968000D01*
X100861809Y-60920380D01*
X100957047Y-60920380D01*
X101099904Y-60968000D01*
X101147523Y-61015619D01*
X102768476Y-61195000D02*
X102692285Y-61156904D01*
X102578000Y-61156904D01*
X102463714Y-61195000D01*
X102387523Y-61271190D01*
X102349428Y-61347380D01*
X102311333Y-61499761D01*
X102311333Y-61614047D01*
X102349428Y-61766428D01*
X102387523Y-61842619D01*
X102463714Y-61918809D01*
X102578000Y-61956904D01*
X102654190Y-61956904D01*
X102768476Y-61918809D01*
X102806571Y-61880714D01*
X102806571Y-61614047D01*
X102654190Y-61614047D01*
X103149428Y-61956904D02*
X103149428Y-61156904D01*
X103606571Y-61956904D01*
X103606571Y-61156904D01*
X103987523Y-61956904D02*
X103987523Y-61156904D01*
X104178000Y-61156904D01*
X104292285Y-61195000D01*
X104368476Y-61271190D01*
X104406571Y-61347380D01*
X104444666Y-61499761D01*
X104444666Y-61614047D01*
X104406571Y-61766428D01*
X104368476Y-61842619D01*
X104292285Y-61918809D01*
X104178000Y-61956904D01*
X103987523Y-61956904D01*
X84480476Y-61195000D02*
X84404285Y-61156904D01*
X84290000Y-61156904D01*
X84175714Y-61195000D01*
X84099523Y-61271190D01*
X84061428Y-61347380D01*
X84023333Y-61499761D01*
X84023333Y-61614047D01*
X84061428Y-61766428D01*
X84099523Y-61842619D01*
X84175714Y-61918809D01*
X84290000Y-61956904D01*
X84366190Y-61956904D01*
X84480476Y-61918809D01*
X84518571Y-61880714D01*
X84518571Y-61614047D01*
X84366190Y-61614047D01*
X84861428Y-61956904D02*
X84861428Y-61156904D01*
X85318571Y-61956904D01*
X85318571Y-61156904D01*
X85699523Y-61956904D02*
X85699523Y-61156904D01*
X85890000Y-61156904D01*
X86004285Y-61195000D01*
X86080476Y-61271190D01*
X86118571Y-61347380D01*
X86156666Y-61499761D01*
X86156666Y-61614047D01*
X86118571Y-61766428D01*
X86080476Y-61842619D01*
X86004285Y-61918809D01*
X85890000Y-61956904D01*
X85699523Y-61956904D01*
X68478476Y-61195000D02*
X68402285Y-61156904D01*
X68288000Y-61156904D01*
X68173714Y-61195000D01*
X68097523Y-61271190D01*
X68059428Y-61347380D01*
X68021333Y-61499761D01*
X68021333Y-61614047D01*
X68059428Y-61766428D01*
X68097523Y-61842619D01*
X68173714Y-61918809D01*
X68288000Y-61956904D01*
X68364190Y-61956904D01*
X68478476Y-61918809D01*
X68516571Y-61880714D01*
X68516571Y-61614047D01*
X68364190Y-61614047D01*
X68859428Y-61956904D02*
X68859428Y-61156904D01*
X69316571Y-61956904D01*
X69316571Y-61156904D01*
X69697523Y-61956904D02*
X69697523Y-61156904D01*
X69888000Y-61156904D01*
X70002285Y-61195000D01*
X70078476Y-61271190D01*
X70116571Y-61347380D01*
X70154666Y-61499761D01*
X70154666Y-61614047D01*
X70116571Y-61766428D01*
X70078476Y-61842619D01*
X70002285Y-61918809D01*
X69888000Y-61956904D01*
X69697523Y-61956904D01*
X101354000Y-59435904D02*
X101306380Y-59531142D01*
X101306380Y-59674000D01*
X101354000Y-59816857D01*
X101449238Y-59912095D01*
X101544476Y-59959714D01*
X101734952Y-60007333D01*
X101877809Y-60007333D01*
X102068285Y-59959714D01*
X102163523Y-59912095D01*
X102258761Y-59816857D01*
X102306380Y-59674000D01*
X102306380Y-59578761D01*
X102258761Y-59435904D01*
X102211142Y-59388285D01*
X101877809Y-59388285D01*
X101877809Y-59578761D01*
X102306380Y-58959714D02*
X101306380Y-58959714D01*
X102306380Y-58388285D01*
X101306380Y-58388285D01*
X102306380Y-57912095D02*
X101306380Y-57912095D01*
X101306380Y-57674000D01*
X101354000Y-57531142D01*
X101449238Y-57435904D01*
X101544476Y-57388285D01*
X101734952Y-57340666D01*
X101877809Y-57340666D01*
X102068285Y-57388285D01*
X102163523Y-57435904D01*
X102258761Y-57531142D01*
X102306380Y-57674000D01*
X102306380Y-57912095D01*
X96631476Y-52776428D02*
X97393380Y-52776428D01*
X97012428Y-53157380D02*
X97012428Y-52395476D01*
X97917190Y-53157380D02*
X98107666Y-53157380D01*
X98202904Y-53109761D01*
X98250523Y-53062142D01*
X98345761Y-52919285D01*
X98393380Y-52728809D01*
X98393380Y-52347857D01*
X98345761Y-52252619D01*
X98298142Y-52205000D01*
X98202904Y-52157380D01*
X98012428Y-52157380D01*
X97917190Y-52205000D01*
X97869571Y-52252619D01*
X97821952Y-52347857D01*
X97821952Y-52585952D01*
X97869571Y-52681190D01*
X97917190Y-52728809D01*
X98012428Y-52776428D01*
X98202904Y-52776428D01*
X98298142Y-52728809D01*
X98345761Y-52681190D01*
X98393380Y-52585952D01*
X98821952Y-52776428D02*
X99583857Y-52776428D01*
X100583857Y-53157380D02*
X100012428Y-53157380D01*
X100298142Y-53157380D02*
X100298142Y-52157380D01*
X100202904Y-52300238D01*
X100107666Y-52395476D01*
X100012428Y-52443095D01*
X101155285Y-52585952D02*
X101060047Y-52538333D01*
X101012428Y-52490714D01*
X100964809Y-52395476D01*
X100964809Y-52347857D01*
X101012428Y-52252619D01*
X101060047Y-52205000D01*
X101155285Y-52157380D01*
X101345761Y-52157380D01*
X101441000Y-52205000D01*
X101488619Y-52252619D01*
X101536238Y-52347857D01*
X101536238Y-52395476D01*
X101488619Y-52490714D01*
X101441000Y-52538333D01*
X101345761Y-52585952D01*
X101155285Y-52585952D01*
X101060047Y-52633571D01*
X101012428Y-52681190D01*
X100964809Y-52776428D01*
X100964809Y-52966904D01*
X101012428Y-53062142D01*
X101060047Y-53109761D01*
X101155285Y-53157380D01*
X101345761Y-53157380D01*
X101441000Y-53109761D01*
X101488619Y-53062142D01*
X101536238Y-52966904D01*
X101536238Y-52776428D01*
X101488619Y-52681190D01*
X101441000Y-52633571D01*
X101345761Y-52585952D01*
X101869571Y-52490714D02*
X102107666Y-53157380D01*
X102345761Y-52490714D01*
D12*
%TO.C,C2*%
X86744000Y-50011000D02*
X86744000Y-47271000D01*
X94184000Y-50011000D02*
X94184000Y-47271000D01*
X94184000Y-47271000D02*
X86744000Y-47271000D01*
X94184000Y-50011000D02*
X86744000Y-50011000D01*
%TO.C,J5*%
X108966000Y-50419000D02*
X108966000Y-60579000D01*
X110236000Y-50419000D02*
X102616000Y-50419000D01*
X102616000Y-50419000D02*
X102616000Y-60579000D01*
X102616000Y-60579000D02*
X110236000Y-60579000D01*
X110236000Y-60579000D02*
X110236000Y-50419000D01*
%TO.C,J2*%
X75498000Y-64830000D02*
X75498000Y-62170000D01*
X70358000Y-64830000D02*
X75498000Y-64830000D01*
X70358000Y-62170000D02*
X75498000Y-62170000D01*
X70358000Y-64830000D02*
X70358000Y-62170000D01*
X69088000Y-64830000D02*
X67758000Y-64830000D01*
X67758000Y-64830000D02*
X67758000Y-63500000D01*
%TO.C,R7*%
X93186000Y-60679000D02*
X93186000Y-57939000D01*
X93186000Y-57939000D02*
X86646000Y-57939000D01*
X86646000Y-57939000D02*
X86646000Y-60679000D01*
X86646000Y-60679000D02*
X93186000Y-60679000D01*
X93956000Y-59309000D02*
X93186000Y-59309000D01*
X85876000Y-59309000D02*
X86646000Y-59309000D01*
%TO.C,R6*%
X71220000Y-51086000D02*
X68480000Y-51086000D01*
X68480000Y-51086000D02*
X68480000Y-57626000D01*
X68480000Y-57626000D02*
X71220000Y-57626000D01*
X71220000Y-57626000D02*
X71220000Y-51086000D01*
X69850000Y-50316000D02*
X69850000Y-51086000D01*
X69850000Y-58396000D02*
X69850000Y-57626000D01*
%TO.C,R5*%
X64108000Y-51086000D02*
X61368000Y-51086000D01*
X61368000Y-51086000D02*
X61368000Y-57626000D01*
X61368000Y-57626000D02*
X64108000Y-57626000D01*
X64108000Y-57626000D02*
X64108000Y-51086000D01*
X62738000Y-50316000D02*
X62738000Y-51086000D01*
X62738000Y-58396000D02*
X62738000Y-57626000D01*
%TO.C,R4*%
X67664000Y-51086000D02*
X64924000Y-51086000D01*
X64924000Y-51086000D02*
X64924000Y-57626000D01*
X64924000Y-57626000D02*
X67664000Y-57626000D01*
X67664000Y-57626000D02*
X67664000Y-51086000D01*
X66294000Y-50316000D02*
X66294000Y-51086000D01*
X66294000Y-58396000D02*
X66294000Y-57626000D01*
%TO.C,J4*%
X78680000Y-62170000D02*
X78680000Y-64830000D01*
X83820000Y-62170000D02*
X78680000Y-62170000D01*
X83820000Y-64830000D02*
X78680000Y-64830000D01*
X83820000Y-62170000D02*
X83820000Y-64830000D01*
X85090000Y-62170000D02*
X86420000Y-62170000D01*
X86420000Y-62170000D02*
X86420000Y-63500000D01*
%TO.C,R3*%
X104708000Y-64830000D02*
X104708000Y-62170000D01*
X91948000Y-64830000D02*
X104708000Y-64830000D01*
X91948000Y-62170000D02*
X104708000Y-62170000D01*
X91948000Y-64830000D02*
X91948000Y-62170000D01*
X90678000Y-64830000D02*
X89348000Y-64830000D01*
X89348000Y-64830000D02*
X89348000Y-63500000D01*
%TO.C,R2*%
X107926000Y-48641000D02*
X107156000Y-48641000D01*
X99846000Y-48641000D02*
X100616000Y-48641000D01*
X107156000Y-47271000D02*
X100616000Y-47271000D01*
X107156000Y-50011000D02*
X107156000Y-47271000D01*
X100616000Y-50011000D02*
X107156000Y-50011000D01*
X100616000Y-47271000D02*
X100616000Y-50011000D01*
%TO.C,R1*%
X87146000Y-52070000D02*
X87916000Y-52070000D01*
X95226000Y-52070000D02*
X94456000Y-52070000D01*
X87916000Y-53440000D02*
X94456000Y-53440000D01*
X87916000Y-50700000D02*
X87916000Y-53440000D01*
X94456000Y-50700000D02*
X87916000Y-50700000D01*
X94456000Y-53440000D02*
X94456000Y-50700000D01*
%TO.C,C5*%
X103347000Y-44320000D02*
X100107000Y-44320000D01*
X103347000Y-36880000D02*
X100107000Y-36880000D01*
X100107000Y-36880000D02*
X100107000Y-44320000D01*
X103347000Y-36880000D02*
X103347000Y-44320000D01*
%TO.C,C4*%
X72232000Y-44320000D02*
X68992000Y-44320000D01*
X72232000Y-36880000D02*
X68992000Y-36880000D01*
X68992000Y-36880000D02*
X68992000Y-44320000D01*
X72232000Y-36880000D02*
X72232000Y-44320000D01*
%TO.C,C1*%
X71999918Y-49648000D02*
X71999918Y-50898000D01*
X71374918Y-50273000D02*
X72624918Y-50273000D01*
X84553000Y-53531000D02*
X84553000Y-54165000D01*
X84513000Y-53091000D02*
X84513000Y-54605000D01*
X84473000Y-52820000D02*
X84473000Y-54876000D01*
X84433000Y-52607000D02*
X84433000Y-55089000D01*
X84393000Y-52426000D02*
X84393000Y-55270000D01*
X84353000Y-52265000D02*
X84353000Y-55431000D01*
X84313000Y-52120000D02*
X84313000Y-55576000D01*
X84273000Y-51987000D02*
X84273000Y-55709000D01*
X84233000Y-51864000D02*
X84233000Y-55832000D01*
X84193000Y-51748000D02*
X84193000Y-55948000D01*
X84153000Y-51639000D02*
X84153000Y-56057000D01*
X84113000Y-51536000D02*
X84113000Y-56160000D01*
X84073000Y-51438000D02*
X84073000Y-56258000D01*
X84033000Y-51344000D02*
X84033000Y-56352000D01*
X83993000Y-51254000D02*
X83993000Y-56442000D01*
X83953000Y-51167000D02*
X83953000Y-56529000D01*
X83913000Y-51084000D02*
X83913000Y-56612000D01*
X83873000Y-51004000D02*
X83873000Y-56692000D01*
X83833000Y-50927000D02*
X83833000Y-56769000D01*
X83793000Y-50852000D02*
X83793000Y-56844000D01*
X83753000Y-50779000D02*
X83753000Y-56917000D01*
X83713000Y-50708000D02*
X83713000Y-56988000D01*
X83673000Y-50640000D02*
X83673000Y-57056000D01*
X83633000Y-50573000D02*
X83633000Y-57123000D01*
X83593000Y-50509000D02*
X83593000Y-57187000D01*
X83553000Y-50446000D02*
X83553000Y-57250000D01*
X83513000Y-50384000D02*
X83513000Y-57312000D01*
X83473000Y-50324000D02*
X83473000Y-57372000D01*
X83433000Y-50265000D02*
X83433000Y-57431000D01*
X83393000Y-50208000D02*
X83393000Y-57488000D01*
X83353000Y-50152000D02*
X83353000Y-57544000D01*
X83313000Y-50098000D02*
X83313000Y-57598000D01*
X83273000Y-50044000D02*
X83273000Y-57652000D01*
X83233000Y-49992000D02*
X83233000Y-57704000D01*
X83193000Y-49941000D02*
X83193000Y-57755000D01*
X83153000Y-49891000D02*
X83153000Y-57805000D01*
X83113000Y-49841000D02*
X83113000Y-57855000D01*
X83073000Y-49793000D02*
X83073000Y-57903000D01*
X83033000Y-49746000D02*
X83033000Y-57950000D01*
X82993000Y-49700000D02*
X82993000Y-57996000D01*
X82953000Y-49654000D02*
X82953000Y-58042000D01*
X82913000Y-49610000D02*
X82913000Y-58086000D01*
X82873000Y-49566000D02*
X82873000Y-58130000D01*
X82833000Y-49523000D02*
X82833000Y-58173000D01*
X82793000Y-49481000D02*
X82793000Y-58215000D01*
X82753000Y-49440000D02*
X82753000Y-58256000D01*
X82713000Y-49399000D02*
X82713000Y-58297000D01*
X82673000Y-49359000D02*
X82673000Y-58337000D01*
X82633000Y-49320000D02*
X82633000Y-58376000D01*
X82593000Y-49281000D02*
X82593000Y-58415000D01*
X82553000Y-49243000D02*
X82553000Y-58453000D01*
X82513000Y-49206000D02*
X82513000Y-58490000D01*
X82473000Y-49170000D02*
X82473000Y-58526000D01*
X82433000Y-49134000D02*
X82433000Y-58562000D01*
X82393000Y-49098000D02*
X82393000Y-58598000D01*
X82353000Y-49063000D02*
X82353000Y-58633000D01*
X82313000Y-49029000D02*
X82313000Y-58667000D01*
X82273000Y-48996000D02*
X82273000Y-58700000D01*
X82233000Y-48963000D02*
X82233000Y-58733000D01*
X82193000Y-48930000D02*
X82193000Y-58766000D01*
X82153000Y-48898000D02*
X82153000Y-58798000D01*
X82113000Y-55288000D02*
X82113000Y-58830000D01*
X82113000Y-48866000D02*
X82113000Y-52408000D01*
X82073000Y-55288000D02*
X82073000Y-58860000D01*
X82073000Y-48836000D02*
X82073000Y-52408000D01*
X82033000Y-55288000D02*
X82033000Y-58891000D01*
X82033000Y-48805000D02*
X82033000Y-52408000D01*
X81993000Y-55288000D02*
X81993000Y-58921000D01*
X81993000Y-48775000D02*
X81993000Y-52408000D01*
X81953000Y-55288000D02*
X81953000Y-58950000D01*
X81953000Y-48746000D02*
X81953000Y-52408000D01*
X81913000Y-55288000D02*
X81913000Y-58979000D01*
X81913000Y-48717000D02*
X81913000Y-52408000D01*
X81873000Y-55288000D02*
X81873000Y-59008000D01*
X81873000Y-48688000D02*
X81873000Y-52408000D01*
X81833000Y-55288000D02*
X81833000Y-59036000D01*
X81833000Y-48660000D02*
X81833000Y-52408000D01*
X81793000Y-55288000D02*
X81793000Y-59064000D01*
X81793000Y-48632000D02*
X81793000Y-52408000D01*
X81753000Y-55288000D02*
X81753000Y-59091000D01*
X81753000Y-48605000D02*
X81753000Y-52408000D01*
X81713000Y-55288000D02*
X81713000Y-59118000D01*
X81713000Y-48578000D02*
X81713000Y-52408000D01*
X81673000Y-55288000D02*
X81673000Y-59144000D01*
X81673000Y-48552000D02*
X81673000Y-52408000D01*
X81633000Y-55288000D02*
X81633000Y-59170000D01*
X81633000Y-48526000D02*
X81633000Y-52408000D01*
X81593000Y-55288000D02*
X81593000Y-59195000D01*
X81593000Y-48501000D02*
X81593000Y-52408000D01*
X81553000Y-55288000D02*
X81553000Y-59220000D01*
X81553000Y-48476000D02*
X81553000Y-52408000D01*
X81513000Y-55288000D02*
X81513000Y-59245000D01*
X81513000Y-48451000D02*
X81513000Y-52408000D01*
X81473000Y-55288000D02*
X81473000Y-59269000D01*
X81473000Y-48427000D02*
X81473000Y-52408000D01*
X81433000Y-55288000D02*
X81433000Y-59293000D01*
X81433000Y-48403000D02*
X81433000Y-52408000D01*
X81393000Y-55288000D02*
X81393000Y-59316000D01*
X81393000Y-48380000D02*
X81393000Y-52408000D01*
X81353000Y-55288000D02*
X81353000Y-59339000D01*
X81353000Y-48357000D02*
X81353000Y-52408000D01*
X81313000Y-55288000D02*
X81313000Y-59362000D01*
X81313000Y-48334000D02*
X81313000Y-52408000D01*
X81273000Y-55288000D02*
X81273000Y-59384000D01*
X81273000Y-48312000D02*
X81273000Y-52408000D01*
X81233000Y-55288000D02*
X81233000Y-59406000D01*
X81233000Y-48290000D02*
X81233000Y-52408000D01*
X81193000Y-55288000D02*
X81193000Y-59428000D01*
X81193000Y-48268000D02*
X81193000Y-52408000D01*
X81153000Y-55288000D02*
X81153000Y-59449000D01*
X81153000Y-48247000D02*
X81153000Y-52408000D01*
X81113000Y-55288000D02*
X81113000Y-59470000D01*
X81113000Y-48226000D02*
X81113000Y-52408000D01*
X81073000Y-55288000D02*
X81073000Y-59490000D01*
X81073000Y-48206000D02*
X81073000Y-52408000D01*
X81033000Y-55288000D02*
X81033000Y-59510000D01*
X81033000Y-48186000D02*
X81033000Y-52408000D01*
X80993000Y-55288000D02*
X80993000Y-59530000D01*
X80993000Y-48166000D02*
X80993000Y-52408000D01*
X80953000Y-55288000D02*
X80953000Y-59550000D01*
X80953000Y-48146000D02*
X80953000Y-52408000D01*
X80913000Y-55288000D02*
X80913000Y-59569000D01*
X80913000Y-48127000D02*
X80913000Y-52408000D01*
X80873000Y-55288000D02*
X80873000Y-59587000D01*
X80873000Y-48109000D02*
X80873000Y-52408000D01*
X80833000Y-55288000D02*
X80833000Y-59606000D01*
X80833000Y-48090000D02*
X80833000Y-52408000D01*
X80793000Y-55288000D02*
X80793000Y-59624000D01*
X80793000Y-48072000D02*
X80793000Y-52408000D01*
X80753000Y-55288000D02*
X80753000Y-59641000D01*
X80753000Y-48055000D02*
X80753000Y-52408000D01*
X80713000Y-55288000D02*
X80713000Y-59659000D01*
X80713000Y-48037000D02*
X80713000Y-52408000D01*
X80673000Y-55288000D02*
X80673000Y-59676000D01*
X80673000Y-48020000D02*
X80673000Y-52408000D01*
X80633000Y-55288000D02*
X80633000Y-59693000D01*
X80633000Y-48003000D02*
X80633000Y-52408000D01*
X80593000Y-55288000D02*
X80593000Y-59709000D01*
X80593000Y-47987000D02*
X80593000Y-52408000D01*
X80553000Y-55288000D02*
X80553000Y-59725000D01*
X80553000Y-47971000D02*
X80553000Y-52408000D01*
X80513000Y-55288000D02*
X80513000Y-59741000D01*
X80513000Y-47955000D02*
X80513000Y-52408000D01*
X80473000Y-55288000D02*
X80473000Y-59756000D01*
X80473000Y-47940000D02*
X80473000Y-52408000D01*
X80433000Y-55288000D02*
X80433000Y-59772000D01*
X80433000Y-47924000D02*
X80433000Y-52408000D01*
X80393000Y-55288000D02*
X80393000Y-59787000D01*
X80393000Y-47909000D02*
X80393000Y-52408000D01*
X80353000Y-55288000D02*
X80353000Y-59801000D01*
X80353000Y-47895000D02*
X80353000Y-52408000D01*
X80313000Y-55288000D02*
X80313000Y-59815000D01*
X80313000Y-47881000D02*
X80313000Y-52408000D01*
X80273000Y-55288000D02*
X80273000Y-59829000D01*
X80273000Y-47867000D02*
X80273000Y-52408000D01*
X80233000Y-55288000D02*
X80233000Y-59843000D01*
X80233000Y-47853000D02*
X80233000Y-52408000D01*
X80193000Y-55288000D02*
X80193000Y-59856000D01*
X80193000Y-47840000D02*
X80193000Y-52408000D01*
X80153000Y-55288000D02*
X80153000Y-59869000D01*
X80153000Y-47827000D02*
X80153000Y-52408000D01*
X80113000Y-55288000D02*
X80113000Y-59882000D01*
X80113000Y-47814000D02*
X80113000Y-52408000D01*
X80073000Y-55288000D02*
X80073000Y-59895000D01*
X80073000Y-47801000D02*
X80073000Y-52408000D01*
X80033000Y-55288000D02*
X80033000Y-59907000D01*
X80033000Y-47789000D02*
X80033000Y-52408000D01*
X79993000Y-55288000D02*
X79993000Y-59919000D01*
X79993000Y-47777000D02*
X79993000Y-52408000D01*
X79953000Y-55288000D02*
X79953000Y-59931000D01*
X79953000Y-47765000D02*
X79953000Y-52408000D01*
X79913000Y-55288000D02*
X79913000Y-59942000D01*
X79913000Y-47754000D02*
X79913000Y-52408000D01*
X79873000Y-55288000D02*
X79873000Y-59953000D01*
X79873000Y-47743000D02*
X79873000Y-52408000D01*
X79833000Y-55288000D02*
X79833000Y-59964000D01*
X79833000Y-47732000D02*
X79833000Y-52408000D01*
X79793000Y-55288000D02*
X79793000Y-59974000D01*
X79793000Y-47722000D02*
X79793000Y-52408000D01*
X79753000Y-55288000D02*
X79753000Y-59985000D01*
X79753000Y-47711000D02*
X79753000Y-52408000D01*
X79713000Y-55288000D02*
X79713000Y-59994000D01*
X79713000Y-47702000D02*
X79713000Y-52408000D01*
X79673000Y-55288000D02*
X79673000Y-60004000D01*
X79673000Y-47692000D02*
X79673000Y-52408000D01*
X79633000Y-55288000D02*
X79633000Y-60014000D01*
X79633000Y-47682000D02*
X79633000Y-52408000D01*
X79593000Y-55288000D02*
X79593000Y-60023000D01*
X79593000Y-47673000D02*
X79593000Y-52408000D01*
X79553000Y-55288000D02*
X79553000Y-60032000D01*
X79553000Y-47664000D02*
X79553000Y-52408000D01*
X79513000Y-55288000D02*
X79513000Y-60040000D01*
X79513000Y-47656000D02*
X79513000Y-52408000D01*
X79473000Y-55288000D02*
X79473000Y-60049000D01*
X79473000Y-47647000D02*
X79473000Y-52408000D01*
X79433000Y-55288000D02*
X79433000Y-60057000D01*
X79433000Y-47639000D02*
X79433000Y-52408000D01*
X79393000Y-55288000D02*
X79393000Y-60064000D01*
X79393000Y-47632000D02*
X79393000Y-52408000D01*
X79353000Y-55288000D02*
X79353000Y-60072000D01*
X79353000Y-47624000D02*
X79353000Y-52408000D01*
X79313000Y-55288000D02*
X79313000Y-60079000D01*
X79313000Y-47617000D02*
X79313000Y-52408000D01*
X79273000Y-55288000D02*
X79273000Y-60086000D01*
X79273000Y-47610000D02*
X79273000Y-52408000D01*
X79233000Y-47603000D02*
X79233000Y-60093000D01*
X79193000Y-47596000D02*
X79193000Y-60100000D01*
X79153000Y-47590000D02*
X79153000Y-60106000D01*
X79113000Y-47584000D02*
X79113000Y-60112000D01*
X79073000Y-47579000D02*
X79073000Y-60117000D01*
X79033000Y-47573000D02*
X79033000Y-60123000D01*
X78993000Y-47568000D02*
X78993000Y-60128000D01*
X78953000Y-47563000D02*
X78953000Y-60133000D01*
X78913000Y-47558000D02*
X78913000Y-60138000D01*
X78872000Y-47554000D02*
X78872000Y-60142000D01*
X78832000Y-47550000D02*
X78832000Y-60146000D01*
X78792000Y-47546000D02*
X78792000Y-60150000D01*
X78752000Y-47542000D02*
X78752000Y-60154000D01*
X78712000Y-47539000D02*
X78712000Y-60157000D01*
X78672000Y-47536000D02*
X78672000Y-60160000D01*
X78632000Y-47533000D02*
X78632000Y-60163000D01*
X78592000Y-47530000D02*
X78592000Y-60166000D01*
X78552000Y-47528000D02*
X78552000Y-60168000D01*
X78512000Y-47526000D02*
X78512000Y-60170000D01*
X78472000Y-47524000D02*
X78472000Y-60172000D01*
X78432000Y-47522000D02*
X78432000Y-60174000D01*
X78392000Y-47521000D02*
X78392000Y-60175000D01*
X78352000Y-47520000D02*
X78352000Y-60176000D01*
X78312000Y-47519000D02*
X78312000Y-60177000D01*
X78272000Y-47518000D02*
X78272000Y-60178000D01*
X78232000Y-47518000D02*
X78232000Y-60178000D01*
X78192000Y-47518000D02*
X78192000Y-60178000D01*
X84562000Y-53848000D02*
G75*
G03*
X84562000Y-53848000I-6370000J0D01*
G01*
%TO.C,U1*%
X76140000Y-36020000D02*
X96580000Y-36020000D01*
X76140000Y-41261000D02*
X77816000Y-41261000D01*
X79665000Y-41261000D02*
X80356000Y-41261000D01*
X82205000Y-41261000D02*
X82896000Y-41261000D01*
X84745000Y-41261000D02*
X85436000Y-41261000D01*
X87285000Y-41261000D02*
X87976000Y-41261000D01*
X89825000Y-41261000D02*
X90516000Y-41261000D01*
X92365000Y-41261000D02*
X93056000Y-41261000D01*
X94905000Y-41261000D02*
X96580000Y-41261000D01*
X76140000Y-36020000D02*
X76140000Y-41261000D01*
X96580000Y-36020000D02*
X96580000Y-41261000D01*
X76140000Y-37860000D02*
X96580000Y-37860000D01*
X84511000Y-36020000D02*
X84511000Y-37860000D01*
X88210000Y-36020000D02*
X88210000Y-37860000D01*
X77470000Y-41261000D02*
X77470000Y-44670000D01*
X80010000Y-41261000D02*
X80010000Y-44655000D01*
X82550000Y-41261000D02*
X82550000Y-44655000D01*
X85090000Y-41261000D02*
X85090000Y-44655000D01*
X87630000Y-41261000D02*
X87630000Y-44655000D01*
X90170000Y-41261000D02*
X90170000Y-44655000D01*
X92710000Y-41261000D02*
X92710000Y-44655000D01*
X95250000Y-41261000D02*
X95250000Y-44655000D01*
%TO.C,J3*%
X109534000Y-41342000D02*
X106874000Y-41342000D01*
X109534000Y-43942000D02*
X109534000Y-41342000D01*
X106874000Y-43942000D02*
X106874000Y-41342000D01*
X109534000Y-43942000D02*
X106874000Y-43942000D01*
X109534000Y-45212000D02*
X109534000Y-46542000D01*
X109534000Y-46542000D02*
X108204000Y-46542000D01*
%TO.C,J1*%
X65338000Y-41342000D02*
X62678000Y-41342000D01*
X65338000Y-43942000D02*
X65338000Y-41342000D01*
X62678000Y-43942000D02*
X62678000Y-41342000D01*
X65338000Y-43942000D02*
X62678000Y-43942000D01*
X65338000Y-45212000D02*
X65338000Y-46542000D01*
X65338000Y-46542000D02*
X64008000Y-46542000D01*
%TO.C,C3*%
X101553000Y-56241000D02*
G75*
G03*
X101553000Y-56241000I-2620000J0D01*
G01*
X101513000Y-56241000D02*
X96353000Y-56241000D01*
X101513000Y-56281000D02*
X96353000Y-56281000D01*
X101512000Y-56321000D02*
X96354000Y-56321000D01*
X101511000Y-56361000D02*
X96355000Y-56361000D01*
X101509000Y-56401000D02*
X96357000Y-56401000D01*
X101506000Y-56441000D02*
X96360000Y-56441000D01*
X101502000Y-56481000D02*
X99973000Y-56481000D01*
X97893000Y-56481000D02*
X96364000Y-56481000D01*
X101498000Y-56521000D02*
X99973000Y-56521000D01*
X97893000Y-56521000D02*
X96368000Y-56521000D01*
X101494000Y-56561000D02*
X99973000Y-56561000D01*
X97893000Y-56561000D02*
X96372000Y-56561000D01*
X101489000Y-56601000D02*
X99973000Y-56601000D01*
X97893000Y-56601000D02*
X96377000Y-56601000D01*
X101483000Y-56641000D02*
X99973000Y-56641000D01*
X97893000Y-56641000D02*
X96383000Y-56641000D01*
X101476000Y-56681000D02*
X99973000Y-56681000D01*
X97893000Y-56681000D02*
X96390000Y-56681000D01*
X101469000Y-56721000D02*
X99973000Y-56721000D01*
X97893000Y-56721000D02*
X96397000Y-56721000D01*
X101461000Y-56761000D02*
X99973000Y-56761000D01*
X97893000Y-56761000D02*
X96405000Y-56761000D01*
X101453000Y-56801000D02*
X99973000Y-56801000D01*
X97893000Y-56801000D02*
X96413000Y-56801000D01*
X101444000Y-56841000D02*
X99973000Y-56841000D01*
X97893000Y-56841000D02*
X96422000Y-56841000D01*
X101434000Y-56881000D02*
X99973000Y-56881000D01*
X97893000Y-56881000D02*
X96432000Y-56881000D01*
X101424000Y-56921000D02*
X99973000Y-56921000D01*
X97893000Y-56921000D02*
X96442000Y-56921000D01*
X101413000Y-56962000D02*
X99973000Y-56962000D01*
X97893000Y-56962000D02*
X96453000Y-56962000D01*
X101401000Y-57002000D02*
X99973000Y-57002000D01*
X97893000Y-57002000D02*
X96465000Y-57002000D01*
X101388000Y-57042000D02*
X99973000Y-57042000D01*
X97893000Y-57042000D02*
X96478000Y-57042000D01*
X101375000Y-57082000D02*
X99973000Y-57082000D01*
X97893000Y-57082000D02*
X96491000Y-57082000D01*
X101361000Y-57122000D02*
X99973000Y-57122000D01*
X97893000Y-57122000D02*
X96505000Y-57122000D01*
X101347000Y-57162000D02*
X99973000Y-57162000D01*
X97893000Y-57162000D02*
X96519000Y-57162000D01*
X101331000Y-57202000D02*
X99973000Y-57202000D01*
X97893000Y-57202000D02*
X96535000Y-57202000D01*
X101315000Y-57242000D02*
X99973000Y-57242000D01*
X97893000Y-57242000D02*
X96551000Y-57242000D01*
X101298000Y-57282000D02*
X99973000Y-57282000D01*
X97893000Y-57282000D02*
X96568000Y-57282000D01*
X101281000Y-57322000D02*
X99973000Y-57322000D01*
X97893000Y-57322000D02*
X96585000Y-57322000D01*
X101262000Y-57362000D02*
X99973000Y-57362000D01*
X97893000Y-57362000D02*
X96604000Y-57362000D01*
X101243000Y-57402000D02*
X99973000Y-57402000D01*
X97893000Y-57402000D02*
X96623000Y-57402000D01*
X101223000Y-57442000D02*
X99973000Y-57442000D01*
X97893000Y-57442000D02*
X96643000Y-57442000D01*
X101201000Y-57482000D02*
X99973000Y-57482000D01*
X97893000Y-57482000D02*
X96665000Y-57482000D01*
X101180000Y-57522000D02*
X99973000Y-57522000D01*
X97893000Y-57522000D02*
X96686000Y-57522000D01*
X101157000Y-57562000D02*
X99973000Y-57562000D01*
X97893000Y-57562000D02*
X96709000Y-57562000D01*
X101133000Y-57602000D02*
X99973000Y-57602000D01*
X97893000Y-57602000D02*
X96733000Y-57602000D01*
X101108000Y-57642000D02*
X99973000Y-57642000D01*
X97893000Y-57642000D02*
X96758000Y-57642000D01*
X101082000Y-57682000D02*
X99973000Y-57682000D01*
X97893000Y-57682000D02*
X96784000Y-57682000D01*
X101055000Y-57722000D02*
X99973000Y-57722000D01*
X97893000Y-57722000D02*
X96811000Y-57722000D01*
X101028000Y-57762000D02*
X99973000Y-57762000D01*
X97893000Y-57762000D02*
X96838000Y-57762000D01*
X100998000Y-57802000D02*
X99973000Y-57802000D01*
X97893000Y-57802000D02*
X96868000Y-57802000D01*
X100968000Y-57842000D02*
X99973000Y-57842000D01*
X97893000Y-57842000D02*
X96898000Y-57842000D01*
X100937000Y-57882000D02*
X99973000Y-57882000D01*
X97893000Y-57882000D02*
X96929000Y-57882000D01*
X100904000Y-57922000D02*
X99973000Y-57922000D01*
X97893000Y-57922000D02*
X96962000Y-57922000D01*
X100870000Y-57962000D02*
X99973000Y-57962000D01*
X97893000Y-57962000D02*
X96996000Y-57962000D01*
X100834000Y-58002000D02*
X99973000Y-58002000D01*
X97893000Y-58002000D02*
X97032000Y-58002000D01*
X100797000Y-58042000D02*
X99973000Y-58042000D01*
X97893000Y-58042000D02*
X97069000Y-58042000D01*
X100759000Y-58082000D02*
X99973000Y-58082000D01*
X97893000Y-58082000D02*
X97107000Y-58082000D01*
X100718000Y-58122000D02*
X99973000Y-58122000D01*
X97893000Y-58122000D02*
X97148000Y-58122000D01*
X100676000Y-58162000D02*
X99973000Y-58162000D01*
X97893000Y-58162000D02*
X97190000Y-58162000D01*
X100632000Y-58202000D02*
X99973000Y-58202000D01*
X97893000Y-58202000D02*
X97234000Y-58202000D01*
X100586000Y-58242000D02*
X99973000Y-58242000D01*
X97893000Y-58242000D02*
X97280000Y-58242000D01*
X100538000Y-58282000D02*
X99973000Y-58282000D01*
X97893000Y-58282000D02*
X97328000Y-58282000D01*
X100487000Y-58322000D02*
X99973000Y-58322000D01*
X97893000Y-58322000D02*
X97379000Y-58322000D01*
X100433000Y-58362000D02*
X99973000Y-58362000D01*
X97893000Y-58362000D02*
X97433000Y-58362000D01*
X100376000Y-58402000D02*
X99973000Y-58402000D01*
X97893000Y-58402000D02*
X97490000Y-58402000D01*
X100316000Y-58442000D02*
X99973000Y-58442000D01*
X97893000Y-58442000D02*
X97550000Y-58442000D01*
X100252000Y-58482000D02*
X99973000Y-58482000D01*
X97893000Y-58482000D02*
X97614000Y-58482000D01*
X100184000Y-58522000D02*
X99973000Y-58522000D01*
X97893000Y-58522000D02*
X97682000Y-58522000D01*
X100111000Y-58562000D02*
X97755000Y-58562000D01*
X100031000Y-58602000D02*
X97835000Y-58602000D01*
X99944000Y-58642000D02*
X97922000Y-58642000D01*
X99848000Y-58682000D02*
X98018000Y-58682000D01*
X99738000Y-58722000D02*
X98128000Y-58722000D01*
X99610000Y-58762000D02*
X98256000Y-58762000D01*
X99451000Y-58802000D02*
X98415000Y-58802000D01*
X99217000Y-58842000D02*
X98649000Y-58842000D01*
X100408000Y-53436225D02*
X100408000Y-53936225D01*
X100658000Y-53686225D02*
X100158000Y-53686225D01*
%TO.C,C2*%
D11*
X95317428Y-48791000D02*
X95360285Y-48833857D01*
X95403142Y-48962428D01*
X95403142Y-49048142D01*
X95360285Y-49176714D01*
X95274571Y-49262428D01*
X95188857Y-49305285D01*
X95017428Y-49348142D01*
X94888857Y-49348142D01*
X94717428Y-49305285D01*
X94631714Y-49262428D01*
X94546000Y-49176714D01*
X94503142Y-49048142D01*
X94503142Y-48962428D01*
X94546000Y-48833857D01*
X94588857Y-48791000D01*
X94588857Y-48448142D02*
X94546000Y-48405285D01*
X94503142Y-48319571D01*
X94503142Y-48105285D01*
X94546000Y-48019571D01*
X94588857Y-47976714D01*
X94674571Y-47933857D01*
X94760285Y-47933857D01*
X94888857Y-47976714D01*
X95403142Y-48491000D01*
X95403142Y-47933857D01*
X86513142Y-50159285D02*
X86513142Y-50673571D01*
X86513142Y-50416428D02*
X85613142Y-50416428D01*
X85741714Y-50502142D01*
X85827428Y-50587857D01*
X85870285Y-50673571D01*
X85613142Y-49602142D02*
X85613142Y-49516428D01*
X85656000Y-49430714D01*
X85698857Y-49387857D01*
X85784571Y-49345000D01*
X85956000Y-49302142D01*
X86170285Y-49302142D01*
X86341714Y-49345000D01*
X86427428Y-49387857D01*
X86470285Y-49430714D01*
X86513142Y-49516428D01*
X86513142Y-49602142D01*
X86470285Y-49687857D01*
X86427428Y-49730714D01*
X86341714Y-49773571D01*
X86170285Y-49816428D01*
X85956000Y-49816428D01*
X85784571Y-49773571D01*
X85698857Y-49730714D01*
X85656000Y-49687857D01*
X85613142Y-49602142D01*
X85613142Y-48745000D02*
X85613142Y-48659285D01*
X85656000Y-48573571D01*
X85698857Y-48530714D01*
X85784571Y-48487857D01*
X85956000Y-48445000D01*
X86170285Y-48445000D01*
X86341714Y-48487857D01*
X86427428Y-48530714D01*
X86470285Y-48573571D01*
X86513142Y-48659285D01*
X86513142Y-48745000D01*
X86470285Y-48830714D01*
X86427428Y-48873571D01*
X86341714Y-48916428D01*
X86170285Y-48959285D01*
X85956000Y-48959285D01*
X85784571Y-48916428D01*
X85698857Y-48873571D01*
X85656000Y-48830714D01*
X85613142Y-48745000D01*
X85913142Y-48059285D02*
X86513142Y-48059285D01*
X85998857Y-48059285D02*
X85956000Y-48016428D01*
X85913142Y-47930714D01*
X85913142Y-47802142D01*
X85956000Y-47716428D01*
X86041714Y-47673571D01*
X86513142Y-47673571D01*
X85913142Y-47373571D02*
X85913142Y-47030714D01*
X86513142Y-47245000D02*
X85741714Y-47245000D01*
X85656000Y-47202142D01*
X85613142Y-47116428D01*
X85613142Y-47030714D01*
%TO.C,J5*%
X103266142Y-55672000D02*
X103909000Y-55672000D01*
X104037571Y-55714857D01*
X104123285Y-55800571D01*
X104166142Y-55929142D01*
X104166142Y-56014857D01*
X103266142Y-54814857D02*
X103266142Y-55243428D01*
X103694714Y-55286285D01*
X103651857Y-55243428D01*
X103609000Y-55157714D01*
X103609000Y-54943428D01*
X103651857Y-54857714D01*
X103694714Y-54814857D01*
X103780428Y-54772000D01*
X103994714Y-54772000D01*
X104080428Y-54814857D01*
X104123285Y-54857714D01*
X104166142Y-54943428D01*
X104166142Y-55157714D01*
X104123285Y-55243428D01*
X104080428Y-55286285D01*
X110008142Y-56699000D02*
X109108142Y-56699000D01*
X109108142Y-56356142D01*
X109151000Y-56270428D01*
X109193857Y-56227571D01*
X109279571Y-56184714D01*
X109408142Y-56184714D01*
X109493857Y-56227571D01*
X109536714Y-56270428D01*
X109579571Y-56356142D01*
X109579571Y-56699000D01*
X109108142Y-55884714D02*
X110008142Y-55670428D01*
X109365285Y-55499000D01*
X110008142Y-55327571D01*
X109108142Y-55113285D01*
X110008142Y-54256142D02*
X109579571Y-54556142D01*
X110008142Y-54770428D02*
X109108142Y-54770428D01*
X109108142Y-54427571D01*
X109151000Y-54341857D01*
X109193857Y-54299000D01*
X109279571Y-54256142D01*
X109408142Y-54256142D01*
X109493857Y-54299000D01*
X109536714Y-54341857D01*
X109579571Y-54427571D01*
X109579571Y-54770428D01*
%TO.C,J2*%
X66248000Y-64277142D02*
X66248000Y-64920000D01*
X66205142Y-65048571D01*
X66119428Y-65134285D01*
X65990857Y-65177142D01*
X65905142Y-65177142D01*
X66633714Y-64362857D02*
X66676571Y-64320000D01*
X66762285Y-64277142D01*
X66976571Y-64277142D01*
X67062285Y-64320000D01*
X67105142Y-64362857D01*
X67148000Y-64448571D01*
X67148000Y-64534285D01*
X67105142Y-64662857D01*
X66590857Y-65177142D01*
X67148000Y-65177142D01*
X77115142Y-64485714D02*
X77115142Y-65000000D01*
X77115142Y-64742857D02*
X76215142Y-64742857D01*
X76343714Y-64828571D01*
X76429428Y-64914285D01*
X76472285Y-65000000D01*
X76172285Y-63457142D02*
X77329428Y-64228571D01*
X76515142Y-62771428D02*
X77115142Y-62771428D01*
X76172285Y-62985714D02*
X76815142Y-63200000D01*
X76815142Y-62642857D01*
X76215142Y-62342857D02*
X76386571Y-62342857D01*
X76215142Y-62000000D02*
X76386571Y-62000000D01*
X71328000Y-63007142D02*
X71328000Y-63650000D01*
X71285142Y-63778571D01*
X71199428Y-63864285D01*
X71070857Y-63907142D01*
X70985142Y-63907142D01*
X71713714Y-63092857D02*
X71756571Y-63050000D01*
X71842285Y-63007142D01*
X72056571Y-63007142D01*
X72142285Y-63050000D01*
X72185142Y-63092857D01*
X72228000Y-63178571D01*
X72228000Y-63264285D01*
X72185142Y-63392857D01*
X71670857Y-63907142D01*
X72228000Y-63907142D01*
%TO.C,R7*%
X89893000Y-57557142D02*
X89593000Y-57128571D01*
X89378714Y-57557142D02*
X89378714Y-56657142D01*
X89721571Y-56657142D01*
X89807285Y-56700000D01*
X89850142Y-56742857D01*
X89893000Y-56828571D01*
X89893000Y-56957142D01*
X89850142Y-57042857D01*
X89807285Y-57085714D01*
X89721571Y-57128571D01*
X89378714Y-57128571D01*
X90193000Y-56657142D02*
X90793000Y-56657142D01*
X90407285Y-57557142D01*
X89935857Y-59716142D02*
X89421571Y-59716142D01*
X89678714Y-59716142D02*
X89678714Y-58816142D01*
X89593000Y-58944714D01*
X89507285Y-59030428D01*
X89421571Y-59073285D01*
X90321571Y-59716142D02*
X90321571Y-58816142D01*
X90407285Y-59373285D02*
X90664428Y-59716142D01*
X90664428Y-59116142D02*
X90321571Y-59459000D01*
%TO.C,R6*%
X69700000Y-48159142D02*
X69400000Y-47730571D01*
X69185714Y-48159142D02*
X69185714Y-47259142D01*
X69528571Y-47259142D01*
X69614285Y-47302000D01*
X69657142Y-47344857D01*
X69700000Y-47430571D01*
X69700000Y-47559142D01*
X69657142Y-47644857D01*
X69614285Y-47687714D01*
X69528571Y-47730571D01*
X69185714Y-47730571D01*
X70471428Y-47259142D02*
X70300000Y-47259142D01*
X70214285Y-47302000D01*
X70171428Y-47344857D01*
X70085714Y-47473428D01*
X70042857Y-47644857D01*
X70042857Y-47987714D01*
X70085714Y-48073428D01*
X70128571Y-48116285D01*
X70214285Y-48159142D01*
X70385714Y-48159142D01*
X70471428Y-48116285D01*
X70514285Y-48073428D01*
X70557142Y-47987714D01*
X70557142Y-47773428D01*
X70514285Y-47687714D01*
X70471428Y-47644857D01*
X70385714Y-47602000D01*
X70214285Y-47602000D01*
X70128571Y-47644857D01*
X70085714Y-47687714D01*
X70042857Y-47773428D01*
X70257142Y-54717142D02*
X70257142Y-55231428D01*
X70257142Y-54974285D02*
X69357142Y-54974285D01*
X69485714Y-55060000D01*
X69571428Y-55145714D01*
X69614285Y-55231428D01*
X70257142Y-54331428D02*
X69357142Y-54331428D01*
X69914285Y-54245714D02*
X70257142Y-53988571D01*
X69657142Y-53988571D02*
X70000000Y-54331428D01*
%TO.C,R5*%
X62588000Y-48159142D02*
X62288000Y-47730571D01*
X62073714Y-48159142D02*
X62073714Y-47259142D01*
X62416571Y-47259142D01*
X62502285Y-47302000D01*
X62545142Y-47344857D01*
X62588000Y-47430571D01*
X62588000Y-47559142D01*
X62545142Y-47644857D01*
X62502285Y-47687714D01*
X62416571Y-47730571D01*
X62073714Y-47730571D01*
X63402285Y-47259142D02*
X62973714Y-47259142D01*
X62930857Y-47687714D01*
X62973714Y-47644857D01*
X63059428Y-47602000D01*
X63273714Y-47602000D01*
X63359428Y-47644857D01*
X63402285Y-47687714D01*
X63445142Y-47773428D01*
X63445142Y-47987714D01*
X63402285Y-48073428D01*
X63359428Y-48116285D01*
X63273714Y-48159142D01*
X63059428Y-48159142D01*
X62973714Y-48116285D01*
X62930857Y-48073428D01*
X63145142Y-54463142D02*
X63145142Y-54977428D01*
X63145142Y-54720285D02*
X62245142Y-54720285D01*
X62373714Y-54806000D01*
X62459428Y-54891714D01*
X62502285Y-54977428D01*
X63145142Y-54077428D02*
X62245142Y-54077428D01*
X62802285Y-53991714D02*
X63145142Y-53734571D01*
X62545142Y-53734571D02*
X62888000Y-54077428D01*
%TO.C,R4*%
X66144000Y-48159142D02*
X65844000Y-47730571D01*
X65629714Y-48159142D02*
X65629714Y-47259142D01*
X65972571Y-47259142D01*
X66058285Y-47302000D01*
X66101142Y-47344857D01*
X66144000Y-47430571D01*
X66144000Y-47559142D01*
X66101142Y-47644857D01*
X66058285Y-47687714D01*
X65972571Y-47730571D01*
X65629714Y-47730571D01*
X66915428Y-47559142D02*
X66915428Y-48159142D01*
X66701142Y-47216285D02*
X66486857Y-47859142D01*
X67044000Y-47859142D01*
X66701142Y-54590142D02*
X66701142Y-55104428D01*
X66701142Y-54847285D02*
X65801142Y-54847285D01*
X65929714Y-54933000D01*
X66015428Y-55018714D01*
X66058285Y-55104428D01*
X66701142Y-54204428D02*
X65801142Y-54204428D01*
X66358285Y-54118714D02*
X66701142Y-53861571D01*
X66101142Y-53861571D02*
X66444000Y-54204428D01*
%TO.C,J4*%
X78567000Y-60594142D02*
X78567000Y-61237000D01*
X78524142Y-61365571D01*
X78438428Y-61451285D01*
X78309857Y-61494142D01*
X78224142Y-61494142D01*
X79381285Y-60894142D02*
X79381285Y-61494142D01*
X79167000Y-60551285D02*
X78952714Y-61194142D01*
X79509857Y-61194142D01*
X87910142Y-64485714D02*
X87910142Y-65000000D01*
X87910142Y-64742857D02*
X87010142Y-64742857D01*
X87138714Y-64828571D01*
X87224428Y-64914285D01*
X87267285Y-65000000D01*
X86967285Y-63457142D02*
X88124428Y-64228571D01*
X87395857Y-63028571D02*
X87353000Y-63114285D01*
X87310142Y-63157142D01*
X87224428Y-63200000D01*
X87181571Y-63200000D01*
X87095857Y-63157142D01*
X87053000Y-63114285D01*
X87010142Y-63028571D01*
X87010142Y-62857142D01*
X87053000Y-62771428D01*
X87095857Y-62728571D01*
X87181571Y-62685714D01*
X87224428Y-62685714D01*
X87310142Y-62728571D01*
X87353000Y-62771428D01*
X87395857Y-62857142D01*
X87395857Y-63028571D01*
X87438714Y-63114285D01*
X87481571Y-63157142D01*
X87567285Y-63200000D01*
X87738714Y-63200000D01*
X87824428Y-63157142D01*
X87867285Y-63114285D01*
X87910142Y-63028571D01*
X87910142Y-62857142D01*
X87867285Y-62771428D01*
X87824428Y-62728571D01*
X87738714Y-62685714D01*
X87567285Y-62685714D01*
X87481571Y-62728571D01*
X87438714Y-62771428D01*
X87395857Y-62857142D01*
X87010142Y-62342857D02*
X87181571Y-62342857D01*
X87010142Y-62000000D02*
X87181571Y-62000000D01*
X82250000Y-63007142D02*
X82250000Y-63650000D01*
X82207142Y-63778571D01*
X82121428Y-63864285D01*
X81992857Y-63907142D01*
X81907142Y-63907142D01*
X83064285Y-63307142D02*
X83064285Y-63907142D01*
X82850000Y-62964285D02*
X82635714Y-63607142D01*
X83192857Y-63607142D01*
%TO.C,R3*%
X105215142Y-64078571D02*
X105215142Y-64507142D01*
X105643714Y-64550000D01*
X105600857Y-64507142D01*
X105558000Y-64421428D01*
X105558000Y-64207142D01*
X105600857Y-64121428D01*
X105643714Y-64078571D01*
X105729428Y-64035714D01*
X105943714Y-64035714D01*
X106029428Y-64078571D01*
X106072285Y-64121428D01*
X106115142Y-64207142D01*
X106115142Y-64421428D01*
X106072285Y-64507142D01*
X106029428Y-64550000D01*
X105215142Y-63478571D02*
X105215142Y-63392857D01*
X105258000Y-63307142D01*
X105300857Y-63264285D01*
X105386571Y-63221428D01*
X105558000Y-63178571D01*
X105772285Y-63178571D01*
X105943714Y-63221428D01*
X106029428Y-63264285D01*
X106072285Y-63307142D01*
X106115142Y-63392857D01*
X106115142Y-63478571D01*
X106072285Y-63564285D01*
X106029428Y-63607142D01*
X105943714Y-63650000D01*
X105772285Y-63692857D01*
X105558000Y-63692857D01*
X105386571Y-63650000D01*
X105300857Y-63607142D01*
X105258000Y-63564285D01*
X105215142Y-63478571D01*
X106115142Y-62792857D02*
X105215142Y-62792857D01*
X105772285Y-62707142D02*
X106115142Y-62450000D01*
X105515142Y-62450000D02*
X105858000Y-62792857D01*
X95978000Y-61875142D02*
X95978000Y-60975142D01*
X96320857Y-60975142D01*
X96406571Y-61018000D01*
X96449428Y-61060857D01*
X96492285Y-61146571D01*
X96492285Y-61275142D01*
X96449428Y-61360857D01*
X96406571Y-61403714D01*
X96320857Y-61446571D01*
X95978000Y-61446571D01*
X97049428Y-60975142D02*
X97220857Y-60975142D01*
X97306571Y-61018000D01*
X97392285Y-61103714D01*
X97435142Y-61275142D01*
X97435142Y-61575142D01*
X97392285Y-61746571D01*
X97306571Y-61832285D01*
X97220857Y-61875142D01*
X97049428Y-61875142D01*
X96963714Y-61832285D01*
X96878000Y-61746571D01*
X96835142Y-61575142D01*
X96835142Y-61275142D01*
X96878000Y-61103714D01*
X96963714Y-61018000D01*
X97049428Y-60975142D01*
X97692285Y-60975142D02*
X98206571Y-60975142D01*
X97949428Y-61875142D02*
X97949428Y-60975142D01*
%TO.C,R2*%
X97562142Y-48791000D02*
X97133571Y-49091000D01*
X97562142Y-49305285D02*
X96662142Y-49305285D01*
X96662142Y-48962428D01*
X96705000Y-48876714D01*
X96747857Y-48833857D01*
X96833571Y-48791000D01*
X96962142Y-48791000D01*
X97047857Y-48833857D01*
X97090714Y-48876714D01*
X97133571Y-48962428D01*
X97133571Y-49305285D01*
X96747857Y-48448142D02*
X96705000Y-48405285D01*
X96662142Y-48319571D01*
X96662142Y-48105285D01*
X96705000Y-48019571D01*
X96747857Y-47976714D01*
X96833571Y-47933857D01*
X96919285Y-47933857D01*
X97047857Y-47976714D01*
X97562142Y-48491000D01*
X97562142Y-47933857D01*
X103264571Y-48448142D02*
X103264571Y-49048142D01*
X103050285Y-48105285D02*
X102836000Y-48748142D01*
X103393142Y-48748142D01*
X103650285Y-48148142D02*
X104250285Y-48148142D01*
X103864571Y-49048142D01*
X104593142Y-49048142D02*
X104593142Y-48148142D01*
X104678857Y-48705285D02*
X104936000Y-49048142D01*
X104936000Y-48448142D02*
X104593142Y-48791000D01*
%TO.C,R1*%
X90909000Y-54763142D02*
X90609000Y-54334571D01*
X90394714Y-54763142D02*
X90394714Y-53863142D01*
X90737571Y-53863142D01*
X90823285Y-53906000D01*
X90866142Y-53948857D01*
X90909000Y-54034571D01*
X90909000Y-54163142D01*
X90866142Y-54248857D01*
X90823285Y-54291714D01*
X90737571Y-54334571D01*
X90394714Y-54334571D01*
X91766142Y-54763142D02*
X91251857Y-54763142D01*
X91509000Y-54763142D02*
X91509000Y-53863142D01*
X91423285Y-53991714D01*
X91337571Y-54077428D01*
X91251857Y-54120285D01*
X90564571Y-51877142D02*
X90564571Y-52477142D01*
X90350285Y-51534285D02*
X90136000Y-52177142D01*
X90693142Y-52177142D01*
X90950285Y-51577142D02*
X91550285Y-51577142D01*
X91164571Y-52477142D01*
X91893142Y-52477142D02*
X91893142Y-51577142D01*
X91978857Y-52134285D02*
X92236000Y-52477142D01*
X92236000Y-51877142D02*
X91893142Y-52220000D01*
%TO.C,H4*%
X107564285Y-63653142D02*
X107564285Y-62753142D01*
X107564285Y-63181714D02*
X108078571Y-63181714D01*
X108078571Y-63653142D02*
X108078571Y-62753142D01*
X108892857Y-63053142D02*
X108892857Y-63653142D01*
X108678571Y-62710285D02*
X108464285Y-63353142D01*
X109021428Y-63353142D01*
%TO.C,H3*%
X107564285Y-38507142D02*
X107564285Y-37607142D01*
X107564285Y-38035714D02*
X108078571Y-38035714D01*
X108078571Y-38507142D02*
X108078571Y-37607142D01*
X108421428Y-37607142D02*
X108978571Y-37607142D01*
X108678571Y-37950000D01*
X108807142Y-37950000D01*
X108892857Y-37992857D01*
X108935714Y-38035714D01*
X108978571Y-38121428D01*
X108978571Y-38335714D01*
X108935714Y-38421428D01*
X108892857Y-38464285D01*
X108807142Y-38507142D01*
X108550000Y-38507142D01*
X108464285Y-38464285D01*
X108421428Y-38421428D01*
%TO.C,H2*%
X63114285Y-63653142D02*
X63114285Y-62753142D01*
X63114285Y-63181714D02*
X63628571Y-63181714D01*
X63628571Y-63653142D02*
X63628571Y-62753142D01*
X64014285Y-62838857D02*
X64057142Y-62796000D01*
X64142857Y-62753142D01*
X64357142Y-62753142D01*
X64442857Y-62796000D01*
X64485714Y-62838857D01*
X64528571Y-62924571D01*
X64528571Y-63010285D01*
X64485714Y-63138857D01*
X63971428Y-63653142D01*
X64528571Y-63653142D01*
%TO.C,H1*%
X63114285Y-38507142D02*
X63114285Y-37607142D01*
X63114285Y-38035714D02*
X63628571Y-38035714D01*
X63628571Y-38507142D02*
X63628571Y-37607142D01*
X64528571Y-38507142D02*
X64014285Y-38507142D01*
X64271428Y-38507142D02*
X64271428Y-37607142D01*
X64185714Y-37735714D01*
X64100000Y-37821428D01*
X64014285Y-37864285D01*
%TO.C,C5*%
X104798428Y-40750000D02*
X104841285Y-40792857D01*
X104884142Y-40921428D01*
X104884142Y-41007142D01*
X104841285Y-41135714D01*
X104755571Y-41221428D01*
X104669857Y-41264285D01*
X104498428Y-41307142D01*
X104369857Y-41307142D01*
X104198428Y-41264285D01*
X104112714Y-41221428D01*
X104027000Y-41135714D01*
X103984142Y-41007142D01*
X103984142Y-40921428D01*
X104027000Y-40792857D01*
X104069857Y-40750000D01*
X103984142Y-39935714D02*
X103984142Y-40364285D01*
X104412714Y-40407142D01*
X104369857Y-40364285D01*
X104327000Y-40278571D01*
X104327000Y-40064285D01*
X104369857Y-39978571D01*
X104412714Y-39935714D01*
X104498428Y-39892857D01*
X104712714Y-39892857D01*
X104798428Y-39935714D01*
X104841285Y-39978571D01*
X104884142Y-40064285D01*
X104884142Y-40278571D01*
X104841285Y-40364285D01*
X104798428Y-40407142D01*
X99298428Y-42121428D02*
X99341285Y-42078571D01*
X99384142Y-42121428D01*
X99341285Y-42164285D01*
X99298428Y-42121428D01*
X99384142Y-42121428D01*
X98569857Y-41735714D02*
X98527000Y-41692857D01*
X98484142Y-41607142D01*
X98484142Y-41392857D01*
X98527000Y-41307142D01*
X98569857Y-41264285D01*
X98655571Y-41221428D01*
X98741285Y-41221428D01*
X98869857Y-41264285D01*
X99384142Y-41778571D01*
X99384142Y-41221428D01*
X98569857Y-40878571D02*
X98527000Y-40835714D01*
X98484142Y-40750000D01*
X98484142Y-40535714D01*
X98527000Y-40450000D01*
X98569857Y-40407142D01*
X98655571Y-40364285D01*
X98741285Y-40364285D01*
X98869857Y-40407142D01*
X99384142Y-40921428D01*
X99384142Y-40364285D01*
X98784142Y-39592857D02*
X99384142Y-39592857D01*
X98784142Y-39978571D02*
X99255571Y-39978571D01*
X99341285Y-39935714D01*
X99384142Y-39850000D01*
X99384142Y-39721428D01*
X99341285Y-39635714D01*
X99298428Y-39592857D01*
X98784142Y-39292857D02*
X98784142Y-38950000D01*
X99384142Y-39164285D02*
X98612714Y-39164285D01*
X98527000Y-39121428D01*
X98484142Y-39035714D01*
X98484142Y-38950000D01*
X102048428Y-40750000D02*
X102091285Y-40792857D01*
X102134142Y-40921428D01*
X102134142Y-41007142D01*
X102091285Y-41135714D01*
X102005571Y-41221428D01*
X101919857Y-41264285D01*
X101748428Y-41307142D01*
X101619857Y-41307142D01*
X101448428Y-41264285D01*
X101362714Y-41221428D01*
X101277000Y-41135714D01*
X101234142Y-41007142D01*
X101234142Y-40921428D01*
X101277000Y-40792857D01*
X101319857Y-40750000D01*
X101234142Y-39935714D02*
X101234142Y-40364285D01*
X101662714Y-40407142D01*
X101619857Y-40364285D01*
X101577000Y-40278571D01*
X101577000Y-40064285D01*
X101619857Y-39978571D01*
X101662714Y-39935714D01*
X101748428Y-39892857D01*
X101962714Y-39892857D01*
X102048428Y-39935714D01*
X102091285Y-39978571D01*
X102134142Y-40064285D01*
X102134142Y-40278571D01*
X102091285Y-40364285D01*
X102048428Y-40407142D01*
%TO.C,C4*%
X68139428Y-40790000D02*
X68182285Y-40832857D01*
X68225142Y-40961428D01*
X68225142Y-41047142D01*
X68182285Y-41175714D01*
X68096571Y-41261428D01*
X68010857Y-41304285D01*
X67839428Y-41347142D01*
X67710857Y-41347142D01*
X67539428Y-41304285D01*
X67453714Y-41261428D01*
X67368000Y-41175714D01*
X67325142Y-41047142D01*
X67325142Y-40961428D01*
X67368000Y-40832857D01*
X67410857Y-40790000D01*
X67625142Y-40018571D02*
X68225142Y-40018571D01*
X67282285Y-40232857D02*
X67925142Y-40447142D01*
X67925142Y-39890000D01*
X73600428Y-42034428D02*
X73643285Y-41991571D01*
X73686142Y-42034428D01*
X73643285Y-42077285D01*
X73600428Y-42034428D01*
X73686142Y-42034428D01*
X72871857Y-41648714D02*
X72829000Y-41605857D01*
X72786142Y-41520142D01*
X72786142Y-41305857D01*
X72829000Y-41220142D01*
X72871857Y-41177285D01*
X72957571Y-41134428D01*
X73043285Y-41134428D01*
X73171857Y-41177285D01*
X73686142Y-41691571D01*
X73686142Y-41134428D01*
X72871857Y-40791571D02*
X72829000Y-40748714D01*
X72786142Y-40663000D01*
X72786142Y-40448714D01*
X72829000Y-40363000D01*
X72871857Y-40320142D01*
X72957571Y-40277285D01*
X73043285Y-40277285D01*
X73171857Y-40320142D01*
X73686142Y-40834428D01*
X73686142Y-40277285D01*
X73086142Y-39505857D02*
X73686142Y-39505857D01*
X73086142Y-39891571D02*
X73557571Y-39891571D01*
X73643285Y-39848714D01*
X73686142Y-39763000D01*
X73686142Y-39634428D01*
X73643285Y-39548714D01*
X73600428Y-39505857D01*
X73086142Y-39205857D02*
X73086142Y-38863000D01*
X73686142Y-39077285D02*
X72914714Y-39077285D01*
X72829000Y-39034428D01*
X72786142Y-38948714D01*
X72786142Y-38863000D01*
%TO.C,C1*%
X83162000Y-48581428D02*
X83119142Y-48624285D01*
X82990571Y-48667142D01*
X82904857Y-48667142D01*
X82776285Y-48624285D01*
X82690571Y-48538571D01*
X82647714Y-48452857D01*
X82604857Y-48281428D01*
X82604857Y-48152857D01*
X82647714Y-47981428D01*
X82690571Y-47895714D01*
X82776285Y-47810000D01*
X82904857Y-47767142D01*
X82990571Y-47767142D01*
X83119142Y-47810000D01*
X83162000Y-47852857D01*
X84019142Y-48667142D02*
X83504857Y-48667142D01*
X83762000Y-48667142D02*
X83762000Y-47767142D01*
X83676285Y-47895714D01*
X83590571Y-47981428D01*
X83504857Y-48024285D01*
X85135428Y-55306142D02*
X85135428Y-55906142D01*
X84921142Y-54963285D02*
X84706857Y-55606142D01*
X85264000Y-55606142D01*
X85521142Y-55006142D02*
X86121142Y-55006142D01*
X85735428Y-55906142D01*
X86635428Y-55006142D02*
X86721142Y-55006142D01*
X86806857Y-55049000D01*
X86849714Y-55091857D01*
X86892571Y-55177571D01*
X86935428Y-55349000D01*
X86935428Y-55563285D01*
X86892571Y-55734714D01*
X86849714Y-55820428D01*
X86806857Y-55863285D01*
X86721142Y-55906142D01*
X86635428Y-55906142D01*
X86549714Y-55863285D01*
X86506857Y-55820428D01*
X86464000Y-55734714D01*
X86421142Y-55563285D01*
X86421142Y-55349000D01*
X86464000Y-55177571D01*
X86506857Y-55091857D01*
X86549714Y-55049000D01*
X86635428Y-55006142D01*
X87706857Y-55306142D02*
X87706857Y-55906142D01*
X87321142Y-55306142D02*
X87321142Y-55777571D01*
X87364000Y-55863285D01*
X87449714Y-55906142D01*
X87578285Y-55906142D01*
X87664000Y-55863285D01*
X87706857Y-55820428D01*
X88435428Y-55434714D02*
X88135428Y-55434714D01*
X88135428Y-55906142D02*
X88135428Y-55006142D01*
X88564000Y-55006142D01*
X78042000Y-54169428D02*
X77999142Y-54212285D01*
X77870571Y-54255142D01*
X77784857Y-54255142D01*
X77656285Y-54212285D01*
X77570571Y-54126571D01*
X77527714Y-54040857D01*
X77484857Y-53869428D01*
X77484857Y-53740857D01*
X77527714Y-53569428D01*
X77570571Y-53483714D01*
X77656285Y-53398000D01*
X77784857Y-53355142D01*
X77870571Y-53355142D01*
X77999142Y-53398000D01*
X78042000Y-53440857D01*
X78899142Y-54255142D02*
X78384857Y-54255142D01*
X78642000Y-54255142D02*
X78642000Y-53355142D01*
X78556285Y-53483714D01*
X78470571Y-53569428D01*
X78384857Y-53612285D01*
%TO.C,U1*%
X85801285Y-42941142D02*
X85801285Y-43669714D01*
X85844142Y-43755428D01*
X85887000Y-43798285D01*
X85972714Y-43841142D01*
X86144142Y-43841142D01*
X86229857Y-43798285D01*
X86272714Y-43755428D01*
X86315571Y-43669714D01*
X86315571Y-42941142D01*
X87215571Y-43841142D02*
X86701285Y-43841142D01*
X86958428Y-43841142D02*
X86958428Y-42941142D01*
X86872714Y-43069714D01*
X86787000Y-43155428D01*
X86701285Y-43198285D01*
X83298857Y-38369142D02*
X83813142Y-38369142D01*
X83556000Y-39269142D02*
X83556000Y-38369142D01*
X84113142Y-39269142D02*
X84113142Y-38369142D01*
X84327428Y-38369142D01*
X84456000Y-38412000D01*
X84541714Y-38497714D01*
X84584571Y-38583428D01*
X84627428Y-38754857D01*
X84627428Y-38883428D01*
X84584571Y-39054857D01*
X84541714Y-39140571D01*
X84456000Y-39226285D01*
X84327428Y-39269142D01*
X84113142Y-39269142D01*
X84970285Y-39012000D02*
X85398857Y-39012000D01*
X84884571Y-39269142D02*
X85184571Y-38369142D01*
X85484571Y-39269142D01*
X85698857Y-38369142D02*
X86298857Y-38369142D01*
X85913142Y-39269142D01*
X86598857Y-38454857D02*
X86641714Y-38412000D01*
X86727428Y-38369142D01*
X86941714Y-38369142D01*
X87027428Y-38412000D01*
X87070285Y-38454857D01*
X87113142Y-38540571D01*
X87113142Y-38626285D01*
X87070285Y-38754857D01*
X86556000Y-39269142D01*
X87113142Y-39269142D01*
X87541714Y-39269142D02*
X87713142Y-39269142D01*
X87798857Y-39226285D01*
X87841714Y-39183428D01*
X87927428Y-39054857D01*
X87970285Y-38883428D01*
X87970285Y-38540571D01*
X87927428Y-38454857D01*
X87884571Y-38412000D01*
X87798857Y-38369142D01*
X87627428Y-38369142D01*
X87541714Y-38412000D01*
X87498857Y-38454857D01*
X87456000Y-38540571D01*
X87456000Y-38754857D01*
X87498857Y-38840571D01*
X87541714Y-38883428D01*
X87627428Y-38926285D01*
X87798857Y-38926285D01*
X87884571Y-38883428D01*
X87927428Y-38840571D01*
X87970285Y-38754857D01*
X88270285Y-38369142D02*
X88870285Y-38369142D01*
X88484571Y-39269142D01*
%TO.C,J3*%
X109428000Y-40274142D02*
X109428000Y-40917000D01*
X109385142Y-41045571D01*
X109299428Y-41131285D01*
X109170857Y-41174142D01*
X109085142Y-41174142D01*
X109770857Y-40274142D02*
X110328000Y-40274142D01*
X110028000Y-40617000D01*
X110156571Y-40617000D01*
X110242285Y-40659857D01*
X110285142Y-40702714D01*
X110328000Y-40788428D01*
X110328000Y-41002714D01*
X110285142Y-41088428D01*
X110242285Y-41131285D01*
X110156571Y-41174142D01*
X109899428Y-41174142D01*
X109813714Y-41131285D01*
X109770857Y-41088428D01*
X105298142Y-45849142D02*
X105298142Y-45677714D01*
X105341000Y-45592000D01*
X105426714Y-45506285D01*
X105598142Y-45463428D01*
X105898142Y-45463428D01*
X106069571Y-45506285D01*
X106155285Y-45592000D01*
X106198142Y-45677714D01*
X106198142Y-45849142D01*
X106155285Y-45934857D01*
X106069571Y-46020571D01*
X105898142Y-46063428D01*
X105598142Y-46063428D01*
X105426714Y-46020571D01*
X105341000Y-45934857D01*
X105298142Y-45849142D01*
X105298142Y-45077714D02*
X106026714Y-45077714D01*
X106112428Y-45034857D01*
X106155285Y-44992000D01*
X106198142Y-44906285D01*
X106198142Y-44734857D01*
X106155285Y-44649142D01*
X106112428Y-44606285D01*
X106026714Y-44563428D01*
X105298142Y-44563428D01*
X105298142Y-44263428D02*
X105298142Y-43749142D01*
X106198142Y-44006285D02*
X105298142Y-44006285D01*
X105855285Y-43449142D02*
X105855285Y-42763428D01*
X106198142Y-41820571D02*
X105769571Y-42120571D01*
X106198142Y-42334857D02*
X105298142Y-42334857D01*
X105298142Y-41992000D01*
X105341000Y-41906285D01*
X105383857Y-41863428D01*
X105469571Y-41820571D01*
X105598142Y-41820571D01*
X105683857Y-41863428D01*
X105726714Y-41906285D01*
X105769571Y-41992000D01*
X105769571Y-42334857D01*
%TO.C,J1*%
X65928142Y-44242000D02*
X66571000Y-44242000D01*
X66699571Y-44284857D01*
X66785285Y-44370571D01*
X66828142Y-44499142D01*
X66828142Y-44584857D01*
X66828142Y-43342000D02*
X66828142Y-43856285D01*
X66828142Y-43599142D02*
X65928142Y-43599142D01*
X66056714Y-43684857D01*
X66142428Y-43770571D01*
X66185285Y-43856285D01*
X61229142Y-45763428D02*
X61229142Y-45592000D01*
X61272000Y-45506285D01*
X61357714Y-45420571D01*
X61529142Y-45377714D01*
X61829142Y-45377714D01*
X62000571Y-45420571D01*
X62086285Y-45506285D01*
X62129142Y-45592000D01*
X62129142Y-45763428D01*
X62086285Y-45849142D01*
X62000571Y-45934857D01*
X61829142Y-45977714D01*
X61529142Y-45977714D01*
X61357714Y-45934857D01*
X61272000Y-45849142D01*
X61229142Y-45763428D01*
X61229142Y-44992000D02*
X61957714Y-44992000D01*
X62043428Y-44949142D01*
X62086285Y-44906285D01*
X62129142Y-44820571D01*
X62129142Y-44649142D01*
X62086285Y-44563428D01*
X62043428Y-44520571D01*
X61957714Y-44477714D01*
X61229142Y-44477714D01*
X61229142Y-44177714D02*
X61229142Y-43663428D01*
X62129142Y-43920571D02*
X61229142Y-43920571D01*
X61786285Y-43363428D02*
X61786285Y-42677714D01*
X62129142Y-41820571D02*
X62129142Y-42249142D01*
X61229142Y-42249142D01*
X63515142Y-45512000D02*
X64158000Y-45512000D01*
X64286571Y-45554857D01*
X64372285Y-45640571D01*
X64415142Y-45769142D01*
X64415142Y-45854857D01*
X64415142Y-44612000D02*
X64415142Y-45126285D01*
X64415142Y-44869142D02*
X63515142Y-44869142D01*
X63643714Y-44954857D01*
X63729428Y-45040571D01*
X63772285Y-45126285D01*
%TO.C,C3*%
X95825428Y-56411000D02*
X95868285Y-56453857D01*
X95911142Y-56582428D01*
X95911142Y-56668142D01*
X95868285Y-56796714D01*
X95782571Y-56882428D01*
X95696857Y-56925285D01*
X95525428Y-56968142D01*
X95396857Y-56968142D01*
X95225428Y-56925285D01*
X95139714Y-56882428D01*
X95054000Y-56796714D01*
X95011142Y-56668142D01*
X95011142Y-56582428D01*
X95054000Y-56453857D01*
X95096857Y-56411000D01*
X95011142Y-56111000D02*
X95011142Y-55553857D01*
X95354000Y-55853857D01*
X95354000Y-55725285D01*
X95396857Y-55639571D01*
X95439714Y-55596714D01*
X95525428Y-55553857D01*
X95739714Y-55553857D01*
X95825428Y-55596714D01*
X95868285Y-55639571D01*
X95911142Y-55725285D01*
X95911142Y-55982428D01*
X95868285Y-56068142D01*
X95825428Y-56111000D01*
X98097285Y-60097142D02*
X97583000Y-60097142D01*
X97840142Y-60097142D02*
X97840142Y-59197142D01*
X97754428Y-59325714D01*
X97668714Y-59411428D01*
X97583000Y-59454285D01*
X98654428Y-59197142D02*
X98740142Y-59197142D01*
X98825857Y-59240000D01*
X98868714Y-59282857D01*
X98911571Y-59368571D01*
X98954428Y-59540000D01*
X98954428Y-59754285D01*
X98911571Y-59925714D01*
X98868714Y-60011428D01*
X98825857Y-60054285D01*
X98740142Y-60097142D01*
X98654428Y-60097142D01*
X98568714Y-60054285D01*
X98525857Y-60011428D01*
X98483000Y-59925714D01*
X98440142Y-59754285D01*
X98440142Y-59540000D01*
X98483000Y-59368571D01*
X98525857Y-59282857D01*
X98568714Y-59240000D01*
X98654428Y-59197142D01*
X99725857Y-59497142D02*
X99725857Y-60097142D01*
X99340142Y-59497142D02*
X99340142Y-59968571D01*
X99383000Y-60054285D01*
X99468714Y-60097142D01*
X99597285Y-60097142D01*
X99683000Y-60054285D01*
X99725857Y-60011428D01*
X100025857Y-59497142D02*
X100368714Y-59497142D01*
X100154428Y-60097142D02*
X100154428Y-59325714D01*
X100197285Y-59240000D01*
X100283000Y-59197142D01*
X100368714Y-59197142D01*
%TD*%
M02*
