M48
; DRILL file {KiCad (5.1.9-0-10_14)} date Monday, January 04, 2021 at 03:57:14 PM
; FORMAT={-:-/ absolute / inch / decimal}
; #@! TF.CreationDate,2021-01-04T15:57:14-08:00
; #@! TF.GenerationSoftware,Kicad,Pcbnew,(5.1.9-0-10_14)
; #@! TF.FileFunction,Plated,1,2,PTH
FMAT,2
INCH
T1C0.0315
T2C0.0394
T3C0.0472
T4C0.0598
%
G90
G05
T1
X2.47Y-1.94
X2.47Y-2.34
X2.61Y-1.94
X2.61Y-2.34
X2.75Y-1.94
X2.75Y-2.34
X2.78Y-1.5
X2.78Y-1.6969
X3.34Y-2.335
X3.39Y-2.05
X3.4631Y-1.915
X3.66Y-1.915
X3.74Y-2.335
X3.79Y-2.05
X3.89Y-1.915
X3.895Y-2.165
X3.895Y-2.2634
X4.005Y-1.5
X4.005Y-1.6969
X4.29Y-1.915
T2
X2.52Y-1.68
X2.52Y-1.78
X2.72Y-2.5
X2.82Y-2.5
X2.92Y-2.5
X3.05Y-1.8
X3.1Y-1.6
X3.15Y-1.8
X3.15Y-2.5
X3.2Y-1.6
X3.25Y-1.8
X3.25Y-2.5
X3.3Y-1.6
X3.35Y-1.8
X3.35Y-2.5
X3.4Y-1.6
X3.45Y-1.8
X3.5Y-1.6
X3.55Y-1.8
X3.57Y-2.5
X3.6Y-1.6
X3.65Y-1.8
X3.67Y-2.5
X3.7Y-1.6
X3.75Y-1.8
X3.77Y-2.5
X3.87Y-2.5
X3.97Y-2.5
X4.07Y-2.5
X4.26Y-1.68
X4.26Y-1.78
T3
X2.98Y-2.12
X3.1769Y-2.12
T4
X4.19Y-2.085
X4.19Y-2.285
T0
M30
