%TF.GenerationSoftware,KiCad,Pcbnew,(5.1.7-0-10_14)*%
%TF.CreationDate,2020-10-07T19:14:23-07:00*%
%TF.ProjectId,PedalBoardStereoAmpTDA7297,50656461-6c42-46f6-9172-645374657265,rev?*%
%TF.SameCoordinates,Original*%
%TF.FileFunction,Copper,L1,Top*%
%TF.FilePolarity,Positive*%
%FSLAX46Y46*%
G04 Gerber Fmt 4.6, Leading zero omitted, Abs format (unit mm)*
G04 Created by KiCad (PCBNEW (5.1.7-0-10_14)) date 2020-10-07 19:14:23*
%MOMM*%
%LPD*%
G01*
G04 APERTURE LIST*
%TA.AperFunction,ComponentPad*%
%ADD10O,1.700000X1.700000*%
%TD*%
%TA.AperFunction,ComponentPad*%
%ADD11R,1.700000X1.700000*%
%TD*%
%TA.AperFunction,ComponentPad*%
%ADD12O,1.600000X1.600000*%
%TD*%
%TA.AperFunction,ComponentPad*%
%ADD13C,1.600000*%
%TD*%
%TA.AperFunction,ComponentPad*%
%ADD14C,2.400000*%
%TD*%
%TA.AperFunction,ComponentPad*%
%ADD15R,2.400000X2.400000*%
%TD*%
%TA.AperFunction,ComponentPad*%
%ADD16O,1.800000X1.800000*%
%TD*%
%TA.AperFunction,ComponentPad*%
%ADD17R,1.800000X1.800000*%
%TD*%
%TA.AperFunction,ComponentPad*%
%ADD18R,1.600000X1.600000*%
%TD*%
%TA.AperFunction,Conductor*%
%ADD19C,0.254000*%
%TD*%
%TA.AperFunction,Conductor*%
%ADD20C,0.100000*%
%TD*%
G04 APERTURE END LIST*
D10*
%TO.P,J5,2*%
%TO.N,VCC*%
X100584000Y-60706000D03*
D11*
%TO.P,J5,1*%
%TO.N,GND*%
X103124000Y-60706000D03*
%TD*%
D12*
%TO.P,R2,2*%
%TO.N,GND*%
X96012000Y-59944000D03*
D13*
%TO.P,R2,1*%
%TO.N,Net-(C3-Pad1)*%
X88392000Y-59944000D03*
%TD*%
D12*
%TO.P,R1,2*%
%TO.N,Net-(C3-Pad1)*%
X88392000Y-55118000D03*
D13*
%TO.P,R1,1*%
%TO.N,VCC*%
X96012000Y-55118000D03*
%TD*%
%TO.P,C5,2*%
%TO.N,Net-(C5-Pad2)*%
X101727000Y-43100000D03*
%TO.P,C5,1*%
%TO.N,Net-(C5-Pad1)*%
X101727000Y-38100000D03*
%TD*%
%TO.P,C4,2*%
%TO.N,Net-(C4-Pad2)*%
X70612000Y-43100000D03*
%TO.P,C4,1*%
%TO.N,Net-(C4-Pad1)*%
X70612000Y-38100000D03*
%TD*%
%TO.P,C2,2*%
%TO.N,GND*%
X89996000Y-49403000D03*
%TO.P,C2,1*%
%TO.N,VCC*%
X94996000Y-49403000D03*
%TD*%
D14*
%TO.P,C1,2*%
%TO.N,GND*%
X76374000Y-54864000D03*
D15*
%TO.P,C1,1*%
%TO.N,VCC*%
X71374000Y-54864000D03*
%TD*%
D16*
%TO.P,U1,15*%
%TO.N,Net-(J3-Pad1)*%
X95250000Y-45720000D03*
%TO.P,U1,14*%
%TO.N,Net-(J3-Pad2)*%
X93980000Y-40640000D03*
%TO.P,U1,13*%
%TO.N,VCC*%
X92710000Y-45720000D03*
%TO.P,U1,12*%
%TO.N,Net-(C5-Pad1)*%
X91440000Y-40640000D03*
%TO.P,U1,11*%
%TO.N,N/C*%
X90170000Y-45720000D03*
%TO.P,U1,10*%
X88900000Y-40640000D03*
%TO.P,U1,9*%
%TO.N,GND*%
X87630000Y-45720000D03*
%TO.P,U1,8*%
X86360000Y-40640000D03*
%TO.P,U1,7*%
%TO.N,Net-(C3-Pad1)*%
X85090000Y-45720000D03*
%TO.P,U1,6*%
X83820000Y-40640000D03*
%TO.P,U1,5*%
%TO.N,N/C*%
X82550000Y-45720000D03*
%TO.P,U1,4*%
%TO.N,Net-(C4-Pad1)*%
X81280000Y-40640000D03*
%TO.P,U1,3*%
%TO.N,VCC*%
X80010000Y-45720000D03*
%TO.P,U1,2*%
%TO.N,Net-(J1-Pad2)*%
X78740000Y-40640000D03*
D17*
%TO.P,U1,1*%
%TO.N,Net-(J1-Pad1)*%
X77470000Y-45720000D03*
%TD*%
D10*
%TO.P,J4,2*%
%TO.N,Net-(C5-Pad2)*%
X107823000Y-43688000D03*
D11*
%TO.P,J4,1*%
%TO.N,GND*%
X107823000Y-46228000D03*
%TD*%
D10*
%TO.P,J3,2*%
%TO.N,Net-(J3-Pad2)*%
X107950000Y-52705000D03*
D11*
%TO.P,J3,1*%
%TO.N,Net-(J3-Pad1)*%
X107950000Y-55245000D03*
%TD*%
D10*
%TO.P,J2,2*%
%TO.N,Net-(C4-Pad2)*%
X64135000Y-43688000D03*
D11*
%TO.P,J2,1*%
%TO.N,GND*%
X64135000Y-46228000D03*
%TD*%
D10*
%TO.P,J1,2*%
%TO.N,Net-(J1-Pad2)*%
X64135000Y-52705000D03*
D11*
%TO.P,J1,1*%
%TO.N,Net-(J1-Pad1)*%
X64135000Y-55245000D03*
%TD*%
D13*
%TO.P,C3,2*%
%TO.N,GND*%
X82590000Y-51562000D03*
D18*
%TO.P,C3,1*%
%TO.N,Net-(C3-Pad1)*%
X85090000Y-51562000D03*
%TD*%
D19*
%TO.N,GND*%
X109830001Y-62840000D02*
X61620000Y-62840000D01*
X61620000Y-60794042D01*
X61815000Y-60794042D01*
X61815000Y-61125958D01*
X61879754Y-61451496D01*
X62006772Y-61758147D01*
X62191175Y-62034125D01*
X62425875Y-62268825D01*
X62701853Y-62453228D01*
X63008504Y-62580246D01*
X63334042Y-62645000D01*
X63665958Y-62645000D01*
X63991496Y-62580246D01*
X64298147Y-62453228D01*
X64574125Y-62268825D01*
X64808825Y-62034125D01*
X64993228Y-61758147D01*
X65120246Y-61451496D01*
X65185000Y-61125958D01*
X65185000Y-60794042D01*
X65120246Y-60468504D01*
X64993228Y-60161853D01*
X64808825Y-59885875D01*
X64725615Y-59802665D01*
X86957000Y-59802665D01*
X86957000Y-60085335D01*
X87012147Y-60362574D01*
X87120320Y-60623727D01*
X87277363Y-60858759D01*
X87477241Y-61058637D01*
X87712273Y-61215680D01*
X87973426Y-61323853D01*
X88250665Y-61379000D01*
X88533335Y-61379000D01*
X88810574Y-61323853D01*
X89071727Y-61215680D01*
X89306759Y-61058637D01*
X89506637Y-60858759D01*
X89663680Y-60623727D01*
X89771853Y-60362574D01*
X89785684Y-60293039D01*
X94620096Y-60293039D01*
X94660754Y-60427087D01*
X94780963Y-60681420D01*
X94948481Y-60907414D01*
X95156869Y-61096385D01*
X95398119Y-61241070D01*
X95662960Y-61335909D01*
X95885000Y-61214624D01*
X95885000Y-60071000D01*
X96139000Y-60071000D01*
X96139000Y-61214624D01*
X96361040Y-61335909D01*
X96625881Y-61241070D01*
X96867131Y-61096385D01*
X97075519Y-60907414D01*
X97243037Y-60681420D01*
X97300548Y-60559740D01*
X99099000Y-60559740D01*
X99099000Y-60852260D01*
X99156068Y-61139158D01*
X99268010Y-61409411D01*
X99430525Y-61652632D01*
X99637368Y-61859475D01*
X99880589Y-62021990D01*
X100150842Y-62133932D01*
X100437740Y-62191000D01*
X100730260Y-62191000D01*
X101017158Y-62133932D01*
X101287411Y-62021990D01*
X101530632Y-61859475D01*
X101662487Y-61727620D01*
X101684498Y-61800180D01*
X101743463Y-61910494D01*
X101822815Y-62007185D01*
X101919506Y-62086537D01*
X102029820Y-62145502D01*
X102149518Y-62181812D01*
X102274000Y-62194072D01*
X102838250Y-62191000D01*
X102997000Y-62032250D01*
X102997000Y-60833000D01*
X103251000Y-60833000D01*
X103251000Y-62032250D01*
X103409750Y-62191000D01*
X103974000Y-62194072D01*
X104098482Y-62181812D01*
X104218180Y-62145502D01*
X104328494Y-62086537D01*
X104425185Y-62007185D01*
X104504537Y-61910494D01*
X104563502Y-61800180D01*
X104599812Y-61680482D01*
X104612072Y-61556000D01*
X104609000Y-60991750D01*
X104450250Y-60833000D01*
X103251000Y-60833000D01*
X102997000Y-60833000D01*
X102977000Y-60833000D01*
X102977000Y-60794042D01*
X106265000Y-60794042D01*
X106265000Y-61125958D01*
X106329754Y-61451496D01*
X106456772Y-61758147D01*
X106641175Y-62034125D01*
X106875875Y-62268825D01*
X107151853Y-62453228D01*
X107458504Y-62580246D01*
X107784042Y-62645000D01*
X108115958Y-62645000D01*
X108441496Y-62580246D01*
X108748147Y-62453228D01*
X109024125Y-62268825D01*
X109258825Y-62034125D01*
X109443228Y-61758147D01*
X109570246Y-61451496D01*
X109635000Y-61125958D01*
X109635000Y-60794042D01*
X109570246Y-60468504D01*
X109443228Y-60161853D01*
X109258825Y-59885875D01*
X109024125Y-59651175D01*
X108748147Y-59466772D01*
X108441496Y-59339754D01*
X108115958Y-59275000D01*
X107784042Y-59275000D01*
X107458504Y-59339754D01*
X107151853Y-59466772D01*
X106875875Y-59651175D01*
X106641175Y-59885875D01*
X106456772Y-60161853D01*
X106329754Y-60468504D01*
X106265000Y-60794042D01*
X102977000Y-60794042D01*
X102977000Y-60579000D01*
X102997000Y-60579000D01*
X102997000Y-59379750D01*
X103251000Y-59379750D01*
X103251000Y-60579000D01*
X104450250Y-60579000D01*
X104609000Y-60420250D01*
X104612072Y-59856000D01*
X104599812Y-59731518D01*
X104563502Y-59611820D01*
X104504537Y-59501506D01*
X104425185Y-59404815D01*
X104328494Y-59325463D01*
X104218180Y-59266498D01*
X104098482Y-59230188D01*
X103974000Y-59217928D01*
X103409750Y-59221000D01*
X103251000Y-59379750D01*
X102997000Y-59379750D01*
X102838250Y-59221000D01*
X102274000Y-59217928D01*
X102149518Y-59230188D01*
X102029820Y-59266498D01*
X101919506Y-59325463D01*
X101822815Y-59404815D01*
X101743463Y-59501506D01*
X101684498Y-59611820D01*
X101662487Y-59684380D01*
X101530632Y-59552525D01*
X101287411Y-59390010D01*
X101017158Y-59278068D01*
X100730260Y-59221000D01*
X100437740Y-59221000D01*
X100150842Y-59278068D01*
X99880589Y-59390010D01*
X99637368Y-59552525D01*
X99430525Y-59759368D01*
X99268010Y-60002589D01*
X99156068Y-60272842D01*
X99099000Y-60559740D01*
X97300548Y-60559740D01*
X97363246Y-60427087D01*
X97403904Y-60293039D01*
X97281915Y-60071000D01*
X96139000Y-60071000D01*
X95885000Y-60071000D01*
X94742085Y-60071000D01*
X94620096Y-60293039D01*
X89785684Y-60293039D01*
X89827000Y-60085335D01*
X89827000Y-59802665D01*
X89785685Y-59594961D01*
X94620096Y-59594961D01*
X94742085Y-59817000D01*
X95885000Y-59817000D01*
X95885000Y-58673376D01*
X96139000Y-58673376D01*
X96139000Y-59817000D01*
X97281915Y-59817000D01*
X97403904Y-59594961D01*
X97363246Y-59460913D01*
X97243037Y-59206580D01*
X97075519Y-58980586D01*
X96867131Y-58791615D01*
X96625881Y-58646930D01*
X96361040Y-58552091D01*
X96139000Y-58673376D01*
X95885000Y-58673376D01*
X95662960Y-58552091D01*
X95398119Y-58646930D01*
X95156869Y-58791615D01*
X94948481Y-58980586D01*
X94780963Y-59206580D01*
X94660754Y-59460913D01*
X94620096Y-59594961D01*
X89785685Y-59594961D01*
X89771853Y-59525426D01*
X89663680Y-59264273D01*
X89506637Y-59029241D01*
X89306759Y-58829363D01*
X89071727Y-58672320D01*
X88810574Y-58564147D01*
X88533335Y-58509000D01*
X88250665Y-58509000D01*
X87973426Y-58564147D01*
X87712273Y-58672320D01*
X87477241Y-58829363D01*
X87277363Y-59029241D01*
X87120320Y-59264273D01*
X87012147Y-59525426D01*
X86957000Y-59802665D01*
X64725615Y-59802665D01*
X64574125Y-59651175D01*
X64298147Y-59466772D01*
X63991496Y-59339754D01*
X63665958Y-59275000D01*
X63334042Y-59275000D01*
X63008504Y-59339754D01*
X62701853Y-59466772D01*
X62425875Y-59651175D01*
X62191175Y-59885875D01*
X62006772Y-60161853D01*
X61879754Y-60468504D01*
X61815000Y-60794042D01*
X61620000Y-60794042D01*
X61620000Y-54395000D01*
X62646928Y-54395000D01*
X62646928Y-56095000D01*
X62659188Y-56219482D01*
X62695498Y-56339180D01*
X62754463Y-56449494D01*
X62833815Y-56546185D01*
X62930506Y-56625537D01*
X63040820Y-56684502D01*
X63160518Y-56720812D01*
X63285000Y-56733072D01*
X64985000Y-56733072D01*
X65109482Y-56720812D01*
X65229180Y-56684502D01*
X65339494Y-56625537D01*
X65436185Y-56546185D01*
X65515537Y-56449494D01*
X65574502Y-56339180D01*
X65610812Y-56219482D01*
X65623072Y-56095000D01*
X65623072Y-54395000D01*
X65610812Y-54270518D01*
X65574502Y-54150820D01*
X65515537Y-54040506D01*
X65436185Y-53943815D01*
X65339494Y-53864463D01*
X65229180Y-53805498D01*
X65156620Y-53783487D01*
X65276107Y-53664000D01*
X69535928Y-53664000D01*
X69535928Y-56064000D01*
X69548188Y-56188482D01*
X69584498Y-56308180D01*
X69643463Y-56418494D01*
X69722815Y-56515185D01*
X69819506Y-56594537D01*
X69929820Y-56653502D01*
X70049518Y-56689812D01*
X70174000Y-56702072D01*
X72574000Y-56702072D01*
X72698482Y-56689812D01*
X72818180Y-56653502D01*
X72928494Y-56594537D01*
X73025185Y-56515185D01*
X73104537Y-56418494D01*
X73163502Y-56308180D01*
X73199812Y-56188482D01*
X73204391Y-56141980D01*
X75275626Y-56141980D01*
X75395514Y-56426836D01*
X75719210Y-56587699D01*
X76068069Y-56682322D01*
X76428684Y-56707067D01*
X76787198Y-56660985D01*
X77129833Y-56545846D01*
X77352486Y-56426836D01*
X77472374Y-56141980D01*
X76374000Y-55043605D01*
X75275626Y-56141980D01*
X73204391Y-56141980D01*
X73212072Y-56064000D01*
X73212072Y-54918684D01*
X74530933Y-54918684D01*
X74577015Y-55277198D01*
X74692154Y-55619833D01*
X74811164Y-55842486D01*
X75096020Y-55962374D01*
X76194395Y-54864000D01*
X76553605Y-54864000D01*
X77651980Y-55962374D01*
X77936836Y-55842486D01*
X78097699Y-55518790D01*
X78192322Y-55169931D01*
X78205583Y-54976665D01*
X86957000Y-54976665D01*
X86957000Y-55259335D01*
X87012147Y-55536574D01*
X87120320Y-55797727D01*
X87277363Y-56032759D01*
X87477241Y-56232637D01*
X87712273Y-56389680D01*
X87973426Y-56497853D01*
X88250665Y-56553000D01*
X88533335Y-56553000D01*
X88810574Y-56497853D01*
X89071727Y-56389680D01*
X89306759Y-56232637D01*
X89506637Y-56032759D01*
X89663680Y-55797727D01*
X89771853Y-55536574D01*
X89827000Y-55259335D01*
X89827000Y-54976665D01*
X94577000Y-54976665D01*
X94577000Y-55259335D01*
X94632147Y-55536574D01*
X94740320Y-55797727D01*
X94897363Y-56032759D01*
X95097241Y-56232637D01*
X95332273Y-56389680D01*
X95593426Y-56497853D01*
X95870665Y-56553000D01*
X96153335Y-56553000D01*
X96430574Y-56497853D01*
X96691727Y-56389680D01*
X96926759Y-56232637D01*
X97126637Y-56032759D01*
X97283680Y-55797727D01*
X97391853Y-55536574D01*
X97447000Y-55259335D01*
X97447000Y-54976665D01*
X97391853Y-54699426D01*
X97283680Y-54438273D01*
X97254766Y-54395000D01*
X106461928Y-54395000D01*
X106461928Y-56095000D01*
X106474188Y-56219482D01*
X106510498Y-56339180D01*
X106569463Y-56449494D01*
X106648815Y-56546185D01*
X106745506Y-56625537D01*
X106855820Y-56684502D01*
X106975518Y-56720812D01*
X107100000Y-56733072D01*
X108800000Y-56733072D01*
X108924482Y-56720812D01*
X109044180Y-56684502D01*
X109154494Y-56625537D01*
X109251185Y-56546185D01*
X109330537Y-56449494D01*
X109389502Y-56339180D01*
X109425812Y-56219482D01*
X109438072Y-56095000D01*
X109438072Y-54395000D01*
X109425812Y-54270518D01*
X109389502Y-54150820D01*
X109330537Y-54040506D01*
X109251185Y-53943815D01*
X109154494Y-53864463D01*
X109044180Y-53805498D01*
X108971620Y-53783487D01*
X109103475Y-53651632D01*
X109265990Y-53408411D01*
X109377932Y-53138158D01*
X109435000Y-52851260D01*
X109435000Y-52558740D01*
X109377932Y-52271842D01*
X109265990Y-52001589D01*
X109103475Y-51758368D01*
X108896632Y-51551525D01*
X108653411Y-51389010D01*
X108383158Y-51277068D01*
X108096260Y-51220000D01*
X107803740Y-51220000D01*
X107516842Y-51277068D01*
X107246589Y-51389010D01*
X107003368Y-51551525D01*
X106796525Y-51758368D01*
X106634010Y-52001589D01*
X106522068Y-52271842D01*
X106465000Y-52558740D01*
X106465000Y-52851260D01*
X106522068Y-53138158D01*
X106634010Y-53408411D01*
X106796525Y-53651632D01*
X106928380Y-53783487D01*
X106855820Y-53805498D01*
X106745506Y-53864463D01*
X106648815Y-53943815D01*
X106569463Y-54040506D01*
X106510498Y-54150820D01*
X106474188Y-54270518D01*
X106461928Y-54395000D01*
X97254766Y-54395000D01*
X97126637Y-54203241D01*
X96926759Y-54003363D01*
X96691727Y-53846320D01*
X96430574Y-53738147D01*
X96153335Y-53683000D01*
X95870665Y-53683000D01*
X95593426Y-53738147D01*
X95332273Y-53846320D01*
X95097241Y-54003363D01*
X94897363Y-54203241D01*
X94740320Y-54438273D01*
X94632147Y-54699426D01*
X94577000Y-54976665D01*
X89827000Y-54976665D01*
X89771853Y-54699426D01*
X89663680Y-54438273D01*
X89506637Y-54203241D01*
X89306759Y-54003363D01*
X89071727Y-53846320D01*
X88810574Y-53738147D01*
X88533335Y-53683000D01*
X88250665Y-53683000D01*
X87973426Y-53738147D01*
X87712273Y-53846320D01*
X87477241Y-54003363D01*
X87277363Y-54203241D01*
X87120320Y-54438273D01*
X87012147Y-54699426D01*
X86957000Y-54976665D01*
X78205583Y-54976665D01*
X78217067Y-54809316D01*
X78170985Y-54450802D01*
X78055846Y-54108167D01*
X77936836Y-53885514D01*
X77651980Y-53765626D01*
X76553605Y-54864000D01*
X76194395Y-54864000D01*
X75096020Y-53765626D01*
X74811164Y-53885514D01*
X74650301Y-54209210D01*
X74555678Y-54558069D01*
X74530933Y-54918684D01*
X73212072Y-54918684D01*
X73212072Y-53664000D01*
X73204392Y-53586020D01*
X75275626Y-53586020D01*
X76374000Y-54684395D01*
X77472374Y-53586020D01*
X77352486Y-53301164D01*
X77028790Y-53140301D01*
X76679931Y-53045678D01*
X76319316Y-53020933D01*
X75960802Y-53067015D01*
X75618167Y-53182154D01*
X75395514Y-53301164D01*
X75275626Y-53586020D01*
X73204392Y-53586020D01*
X73199812Y-53539518D01*
X73163502Y-53419820D01*
X73104537Y-53309506D01*
X73025185Y-53212815D01*
X72928494Y-53133463D01*
X72818180Y-53074498D01*
X72698482Y-53038188D01*
X72574000Y-53025928D01*
X70174000Y-53025928D01*
X70049518Y-53038188D01*
X69929820Y-53074498D01*
X69819506Y-53133463D01*
X69722815Y-53212815D01*
X69643463Y-53309506D01*
X69584498Y-53419820D01*
X69548188Y-53539518D01*
X69535928Y-53664000D01*
X65276107Y-53664000D01*
X65288475Y-53651632D01*
X65450990Y-53408411D01*
X65562932Y-53138158D01*
X65620000Y-52851260D01*
X65620000Y-52558740D01*
X65619197Y-52554702D01*
X81776903Y-52554702D01*
X81848486Y-52798671D01*
X82103996Y-52919571D01*
X82378184Y-52988300D01*
X82660512Y-53002217D01*
X82940130Y-52960787D01*
X83206292Y-52865603D01*
X83331514Y-52798671D01*
X83403097Y-52554702D01*
X82590000Y-51741605D01*
X81776903Y-52554702D01*
X65619197Y-52554702D01*
X65562932Y-52271842D01*
X65450990Y-52001589D01*
X65288475Y-51758368D01*
X65162619Y-51632512D01*
X81149783Y-51632512D01*
X81191213Y-51912130D01*
X81286397Y-52178292D01*
X81353329Y-52303514D01*
X81597298Y-52375097D01*
X82410395Y-51562000D01*
X82769605Y-51562000D01*
X83582702Y-52375097D01*
X83651928Y-52354785D01*
X83651928Y-52362000D01*
X83664188Y-52486482D01*
X83700498Y-52606180D01*
X83759463Y-52716494D01*
X83838815Y-52813185D01*
X83935506Y-52892537D01*
X84045820Y-52951502D01*
X84165518Y-52987812D01*
X84290000Y-53000072D01*
X85890000Y-53000072D01*
X86014482Y-52987812D01*
X86134180Y-52951502D01*
X86244494Y-52892537D01*
X86341185Y-52813185D01*
X86420537Y-52716494D01*
X86479502Y-52606180D01*
X86515812Y-52486482D01*
X86528072Y-52362000D01*
X86528072Y-50762000D01*
X86515812Y-50637518D01*
X86479502Y-50517820D01*
X86420537Y-50407506D01*
X86410850Y-50395702D01*
X89182903Y-50395702D01*
X89254486Y-50639671D01*
X89509996Y-50760571D01*
X89784184Y-50829300D01*
X90066512Y-50843217D01*
X90346130Y-50801787D01*
X90612292Y-50706603D01*
X90737514Y-50639671D01*
X90809097Y-50395702D01*
X89996000Y-49582605D01*
X89182903Y-50395702D01*
X86410850Y-50395702D01*
X86341185Y-50310815D01*
X86244494Y-50231463D01*
X86134180Y-50172498D01*
X86014482Y-50136188D01*
X85890000Y-50123928D01*
X84290000Y-50123928D01*
X84165518Y-50136188D01*
X84045820Y-50172498D01*
X83935506Y-50231463D01*
X83838815Y-50310815D01*
X83759463Y-50407506D01*
X83700498Y-50517820D01*
X83664188Y-50637518D01*
X83651928Y-50762000D01*
X83651928Y-50769215D01*
X83582702Y-50748903D01*
X82769605Y-51562000D01*
X82410395Y-51562000D01*
X81597298Y-50748903D01*
X81353329Y-50820486D01*
X81232429Y-51075996D01*
X81163700Y-51350184D01*
X81149783Y-51632512D01*
X65162619Y-51632512D01*
X65081632Y-51551525D01*
X64838411Y-51389010D01*
X64568158Y-51277068D01*
X64281260Y-51220000D01*
X63988740Y-51220000D01*
X63701842Y-51277068D01*
X63431589Y-51389010D01*
X63188368Y-51551525D01*
X62981525Y-51758368D01*
X62819010Y-52001589D01*
X62707068Y-52271842D01*
X62650000Y-52558740D01*
X62650000Y-52851260D01*
X62707068Y-53138158D01*
X62819010Y-53408411D01*
X62981525Y-53651632D01*
X63113380Y-53783487D01*
X63040820Y-53805498D01*
X62930506Y-53864463D01*
X62833815Y-53943815D01*
X62754463Y-54040506D01*
X62695498Y-54150820D01*
X62659188Y-54270518D01*
X62646928Y-54395000D01*
X61620000Y-54395000D01*
X61620000Y-50569298D01*
X81776903Y-50569298D01*
X82590000Y-51382395D01*
X83403097Y-50569298D01*
X83331514Y-50325329D01*
X83076004Y-50204429D01*
X82801816Y-50135700D01*
X82519488Y-50121783D01*
X82239870Y-50163213D01*
X81973708Y-50258397D01*
X81848486Y-50325329D01*
X81776903Y-50569298D01*
X61620000Y-50569298D01*
X61620000Y-49473512D01*
X88555783Y-49473512D01*
X88597213Y-49753130D01*
X88692397Y-50019292D01*
X88759329Y-50144514D01*
X89003298Y-50216097D01*
X89816395Y-49403000D01*
X90175605Y-49403000D01*
X90988702Y-50216097D01*
X91232671Y-50144514D01*
X91353571Y-49889004D01*
X91422300Y-49614816D01*
X91436217Y-49332488D01*
X91425724Y-49261665D01*
X93561000Y-49261665D01*
X93561000Y-49544335D01*
X93616147Y-49821574D01*
X93724320Y-50082727D01*
X93881363Y-50317759D01*
X94081241Y-50517637D01*
X94316273Y-50674680D01*
X94577426Y-50782853D01*
X94854665Y-50838000D01*
X95137335Y-50838000D01*
X95414574Y-50782853D01*
X95675727Y-50674680D01*
X95910759Y-50517637D01*
X96110637Y-50317759D01*
X96267680Y-50082727D01*
X96375853Y-49821574D01*
X96431000Y-49544335D01*
X96431000Y-49261665D01*
X96375853Y-48984426D01*
X96267680Y-48723273D01*
X96110637Y-48488241D01*
X95910759Y-48288363D01*
X95675727Y-48131320D01*
X95414574Y-48023147D01*
X95137335Y-47968000D01*
X94854665Y-47968000D01*
X94577426Y-48023147D01*
X94316273Y-48131320D01*
X94081241Y-48288363D01*
X93881363Y-48488241D01*
X93724320Y-48723273D01*
X93616147Y-48984426D01*
X93561000Y-49261665D01*
X91425724Y-49261665D01*
X91394787Y-49052870D01*
X91299603Y-48786708D01*
X91232671Y-48661486D01*
X90988702Y-48589903D01*
X90175605Y-49403000D01*
X89816395Y-49403000D01*
X89003298Y-48589903D01*
X88759329Y-48661486D01*
X88638429Y-48916996D01*
X88569700Y-49191184D01*
X88555783Y-49473512D01*
X61620000Y-49473512D01*
X61620000Y-48410298D01*
X89182903Y-48410298D01*
X89996000Y-49223395D01*
X90809097Y-48410298D01*
X90737514Y-48166329D01*
X90482004Y-48045429D01*
X90207816Y-47976700D01*
X89925488Y-47962783D01*
X89645870Y-48004213D01*
X89379708Y-48099397D01*
X89254486Y-48166329D01*
X89182903Y-48410298D01*
X61620000Y-48410298D01*
X61620000Y-47078000D01*
X62646928Y-47078000D01*
X62659188Y-47202482D01*
X62695498Y-47322180D01*
X62754463Y-47432494D01*
X62833815Y-47529185D01*
X62930506Y-47608537D01*
X63040820Y-47667502D01*
X63160518Y-47703812D01*
X63285000Y-47716072D01*
X63849250Y-47713000D01*
X64008000Y-47554250D01*
X64008000Y-46355000D01*
X64262000Y-46355000D01*
X64262000Y-47554250D01*
X64420750Y-47713000D01*
X64985000Y-47716072D01*
X65109482Y-47703812D01*
X65229180Y-47667502D01*
X65339494Y-47608537D01*
X65436185Y-47529185D01*
X65515537Y-47432494D01*
X65574502Y-47322180D01*
X65610812Y-47202482D01*
X65623072Y-47078000D01*
X65620000Y-46513750D01*
X65461250Y-46355000D01*
X64262000Y-46355000D01*
X64008000Y-46355000D01*
X62808750Y-46355000D01*
X62650000Y-46513750D01*
X62646928Y-47078000D01*
X61620000Y-47078000D01*
X61620000Y-45378000D01*
X62646928Y-45378000D01*
X62650000Y-45942250D01*
X62808750Y-46101000D01*
X64008000Y-46101000D01*
X64008000Y-46081000D01*
X64262000Y-46081000D01*
X64262000Y-46101000D01*
X65461250Y-46101000D01*
X65620000Y-45942250D01*
X65623072Y-45378000D01*
X65610812Y-45253518D01*
X65574502Y-45133820D01*
X65515537Y-45023506D01*
X65436185Y-44926815D01*
X65339494Y-44847463D01*
X65288116Y-44820000D01*
X75931928Y-44820000D01*
X75931928Y-46620000D01*
X75944188Y-46744482D01*
X75980498Y-46864180D01*
X76039463Y-46974494D01*
X76118815Y-47071185D01*
X76215506Y-47150537D01*
X76325820Y-47209502D01*
X76445518Y-47245812D01*
X76570000Y-47258072D01*
X78370000Y-47258072D01*
X78494482Y-47245812D01*
X78614180Y-47209502D01*
X78724494Y-47150537D01*
X78821185Y-47071185D01*
X78900537Y-46974494D01*
X78959502Y-46864180D01*
X78965056Y-46845873D01*
X79031495Y-46912312D01*
X79282905Y-47080299D01*
X79562257Y-47196011D01*
X79858816Y-47255000D01*
X80161184Y-47255000D01*
X80457743Y-47196011D01*
X80737095Y-47080299D01*
X80988505Y-46912312D01*
X81202312Y-46698505D01*
X81280000Y-46582237D01*
X81357688Y-46698505D01*
X81571495Y-46912312D01*
X81822905Y-47080299D01*
X82102257Y-47196011D01*
X82398816Y-47255000D01*
X82701184Y-47255000D01*
X82997743Y-47196011D01*
X83277095Y-47080299D01*
X83528505Y-46912312D01*
X83742312Y-46698505D01*
X83820000Y-46582237D01*
X83897688Y-46698505D01*
X84111495Y-46912312D01*
X84362905Y-47080299D01*
X84642257Y-47196011D01*
X84938816Y-47255000D01*
X85241184Y-47255000D01*
X85537743Y-47196011D01*
X85817095Y-47080299D01*
X86068505Y-46912312D01*
X86282312Y-46698505D01*
X86450299Y-46447095D01*
X86566011Y-46167743D01*
X86625000Y-45871184D01*
X86625000Y-45568816D01*
X88635000Y-45568816D01*
X88635000Y-45871184D01*
X88693989Y-46167743D01*
X88809701Y-46447095D01*
X88977688Y-46698505D01*
X89191495Y-46912312D01*
X89442905Y-47080299D01*
X89722257Y-47196011D01*
X90018816Y-47255000D01*
X90321184Y-47255000D01*
X90617743Y-47196011D01*
X90897095Y-47080299D01*
X91148505Y-46912312D01*
X91362312Y-46698505D01*
X91440000Y-46582237D01*
X91517688Y-46698505D01*
X91731495Y-46912312D01*
X91982905Y-47080299D01*
X92262257Y-47196011D01*
X92558816Y-47255000D01*
X92861184Y-47255000D01*
X93157743Y-47196011D01*
X93437095Y-47080299D01*
X93688505Y-46912312D01*
X93902312Y-46698505D01*
X93980000Y-46582237D01*
X94057688Y-46698505D01*
X94271495Y-46912312D01*
X94522905Y-47080299D01*
X94802257Y-47196011D01*
X95098816Y-47255000D01*
X95401184Y-47255000D01*
X95697743Y-47196011D01*
X95977095Y-47080299D01*
X95980535Y-47078000D01*
X106334928Y-47078000D01*
X106347188Y-47202482D01*
X106383498Y-47322180D01*
X106442463Y-47432494D01*
X106521815Y-47529185D01*
X106618506Y-47608537D01*
X106728820Y-47667502D01*
X106848518Y-47703812D01*
X106973000Y-47716072D01*
X107537250Y-47713000D01*
X107696000Y-47554250D01*
X107696000Y-46355000D01*
X107950000Y-46355000D01*
X107950000Y-47554250D01*
X108108750Y-47713000D01*
X108673000Y-47716072D01*
X108797482Y-47703812D01*
X108917180Y-47667502D01*
X109027494Y-47608537D01*
X109124185Y-47529185D01*
X109203537Y-47432494D01*
X109262502Y-47322180D01*
X109298812Y-47202482D01*
X109311072Y-47078000D01*
X109308000Y-46513750D01*
X109149250Y-46355000D01*
X107950000Y-46355000D01*
X107696000Y-46355000D01*
X106496750Y-46355000D01*
X106338000Y-46513750D01*
X106334928Y-47078000D01*
X95980535Y-47078000D01*
X96228505Y-46912312D01*
X96442312Y-46698505D01*
X96610299Y-46447095D01*
X96726011Y-46167743D01*
X96785000Y-45871184D01*
X96785000Y-45568816D01*
X96747045Y-45378000D01*
X106334928Y-45378000D01*
X106338000Y-45942250D01*
X106496750Y-46101000D01*
X107696000Y-46101000D01*
X107696000Y-46081000D01*
X107950000Y-46081000D01*
X107950000Y-46101000D01*
X109149250Y-46101000D01*
X109308000Y-45942250D01*
X109311072Y-45378000D01*
X109298812Y-45253518D01*
X109262502Y-45133820D01*
X109203537Y-45023506D01*
X109124185Y-44926815D01*
X109027494Y-44847463D01*
X108917180Y-44788498D01*
X108844620Y-44766487D01*
X108976475Y-44634632D01*
X109138990Y-44391411D01*
X109250932Y-44121158D01*
X109308000Y-43834260D01*
X109308000Y-43541740D01*
X109250932Y-43254842D01*
X109138990Y-42984589D01*
X108976475Y-42741368D01*
X108769632Y-42534525D01*
X108526411Y-42372010D01*
X108256158Y-42260068D01*
X107969260Y-42203000D01*
X107676740Y-42203000D01*
X107389842Y-42260068D01*
X107119589Y-42372010D01*
X106876368Y-42534525D01*
X106669525Y-42741368D01*
X106507010Y-42984589D01*
X106395068Y-43254842D01*
X106338000Y-43541740D01*
X106338000Y-43834260D01*
X106395068Y-44121158D01*
X106507010Y-44391411D01*
X106669525Y-44634632D01*
X106801380Y-44766487D01*
X106728820Y-44788498D01*
X106618506Y-44847463D01*
X106521815Y-44926815D01*
X106442463Y-45023506D01*
X106383498Y-45133820D01*
X106347188Y-45253518D01*
X106334928Y-45378000D01*
X96747045Y-45378000D01*
X96726011Y-45272257D01*
X96610299Y-44992905D01*
X96442312Y-44741495D01*
X96228505Y-44527688D01*
X95977095Y-44359701D01*
X95697743Y-44243989D01*
X95401184Y-44185000D01*
X95098816Y-44185000D01*
X94802257Y-44243989D01*
X94522905Y-44359701D01*
X94271495Y-44527688D01*
X94057688Y-44741495D01*
X93980000Y-44857763D01*
X93902312Y-44741495D01*
X93688505Y-44527688D01*
X93437095Y-44359701D01*
X93157743Y-44243989D01*
X92861184Y-44185000D01*
X92558816Y-44185000D01*
X92262257Y-44243989D01*
X91982905Y-44359701D01*
X91731495Y-44527688D01*
X91517688Y-44741495D01*
X91440000Y-44857763D01*
X91362312Y-44741495D01*
X91148505Y-44527688D01*
X90897095Y-44359701D01*
X90617743Y-44243989D01*
X90321184Y-44185000D01*
X90018816Y-44185000D01*
X89722257Y-44243989D01*
X89442905Y-44359701D01*
X89191495Y-44527688D01*
X88977688Y-44741495D01*
X88809701Y-44992905D01*
X88693989Y-45272257D01*
X88635000Y-45568816D01*
X86625000Y-45568816D01*
X86566011Y-45272257D01*
X86450299Y-44992905D01*
X86282312Y-44741495D01*
X86068505Y-44527688D01*
X85817095Y-44359701D01*
X85537743Y-44243989D01*
X85241184Y-44185000D01*
X84938816Y-44185000D01*
X84642257Y-44243989D01*
X84362905Y-44359701D01*
X84111495Y-44527688D01*
X83897688Y-44741495D01*
X83820000Y-44857763D01*
X83742312Y-44741495D01*
X83528505Y-44527688D01*
X83277095Y-44359701D01*
X82997743Y-44243989D01*
X82701184Y-44185000D01*
X82398816Y-44185000D01*
X82102257Y-44243989D01*
X81822905Y-44359701D01*
X81571495Y-44527688D01*
X81357688Y-44741495D01*
X81280000Y-44857763D01*
X81202312Y-44741495D01*
X80988505Y-44527688D01*
X80737095Y-44359701D01*
X80457743Y-44243989D01*
X80161184Y-44185000D01*
X79858816Y-44185000D01*
X79562257Y-44243989D01*
X79282905Y-44359701D01*
X79031495Y-44527688D01*
X78965056Y-44594127D01*
X78959502Y-44575820D01*
X78900537Y-44465506D01*
X78821185Y-44368815D01*
X78724494Y-44289463D01*
X78614180Y-44230498D01*
X78494482Y-44194188D01*
X78370000Y-44181928D01*
X76570000Y-44181928D01*
X76445518Y-44194188D01*
X76325820Y-44230498D01*
X76215506Y-44289463D01*
X76118815Y-44368815D01*
X76039463Y-44465506D01*
X75980498Y-44575820D01*
X75944188Y-44695518D01*
X75931928Y-44820000D01*
X65288116Y-44820000D01*
X65229180Y-44788498D01*
X65156620Y-44766487D01*
X65288475Y-44634632D01*
X65450990Y-44391411D01*
X65562932Y-44121158D01*
X65620000Y-43834260D01*
X65620000Y-43541740D01*
X65562932Y-43254842D01*
X65450990Y-42984589D01*
X65433669Y-42958665D01*
X69177000Y-42958665D01*
X69177000Y-43241335D01*
X69232147Y-43518574D01*
X69340320Y-43779727D01*
X69497363Y-44014759D01*
X69697241Y-44214637D01*
X69932273Y-44371680D01*
X70193426Y-44479853D01*
X70470665Y-44535000D01*
X70753335Y-44535000D01*
X71030574Y-44479853D01*
X71291727Y-44371680D01*
X71526759Y-44214637D01*
X71726637Y-44014759D01*
X71883680Y-43779727D01*
X71991853Y-43518574D01*
X72047000Y-43241335D01*
X72047000Y-42958665D01*
X100292000Y-42958665D01*
X100292000Y-43241335D01*
X100347147Y-43518574D01*
X100455320Y-43779727D01*
X100612363Y-44014759D01*
X100812241Y-44214637D01*
X101047273Y-44371680D01*
X101308426Y-44479853D01*
X101585665Y-44535000D01*
X101868335Y-44535000D01*
X102145574Y-44479853D01*
X102406727Y-44371680D01*
X102641759Y-44214637D01*
X102841637Y-44014759D01*
X102998680Y-43779727D01*
X103106853Y-43518574D01*
X103162000Y-43241335D01*
X103162000Y-42958665D01*
X103106853Y-42681426D01*
X102998680Y-42420273D01*
X102841637Y-42185241D01*
X102641759Y-41985363D01*
X102406727Y-41828320D01*
X102145574Y-41720147D01*
X101868335Y-41665000D01*
X101585665Y-41665000D01*
X101308426Y-41720147D01*
X101047273Y-41828320D01*
X100812241Y-41985363D01*
X100612363Y-42185241D01*
X100455320Y-42420273D01*
X100347147Y-42681426D01*
X100292000Y-42958665D01*
X72047000Y-42958665D01*
X71991853Y-42681426D01*
X71883680Y-42420273D01*
X71726637Y-42185241D01*
X71526759Y-41985363D01*
X71291727Y-41828320D01*
X71030574Y-41720147D01*
X70753335Y-41665000D01*
X70470665Y-41665000D01*
X70193426Y-41720147D01*
X69932273Y-41828320D01*
X69697241Y-41985363D01*
X69497363Y-42185241D01*
X69340320Y-42420273D01*
X69232147Y-42681426D01*
X69177000Y-42958665D01*
X65433669Y-42958665D01*
X65288475Y-42741368D01*
X65081632Y-42534525D01*
X64838411Y-42372010D01*
X64568158Y-42260068D01*
X64281260Y-42203000D01*
X63988740Y-42203000D01*
X63701842Y-42260068D01*
X63431589Y-42372010D01*
X63188368Y-42534525D01*
X62981525Y-42741368D01*
X62819010Y-42984589D01*
X62707068Y-43254842D01*
X62650000Y-43541740D01*
X62650000Y-43834260D01*
X62707068Y-44121158D01*
X62819010Y-44391411D01*
X62981525Y-44634632D01*
X63113380Y-44766487D01*
X63040820Y-44788498D01*
X62930506Y-44847463D01*
X62833815Y-44926815D01*
X62754463Y-45023506D01*
X62695498Y-45133820D01*
X62659188Y-45253518D01*
X62646928Y-45378000D01*
X61620000Y-45378000D01*
X61620000Y-40488816D01*
X77205000Y-40488816D01*
X77205000Y-40791184D01*
X77263989Y-41087743D01*
X77379701Y-41367095D01*
X77547688Y-41618505D01*
X77761495Y-41832312D01*
X78012905Y-42000299D01*
X78292257Y-42116011D01*
X78588816Y-42175000D01*
X78891184Y-42175000D01*
X79187743Y-42116011D01*
X79467095Y-42000299D01*
X79718505Y-41832312D01*
X79932312Y-41618505D01*
X80010000Y-41502237D01*
X80087688Y-41618505D01*
X80301495Y-41832312D01*
X80552905Y-42000299D01*
X80832257Y-42116011D01*
X81128816Y-42175000D01*
X81431184Y-42175000D01*
X81727743Y-42116011D01*
X82007095Y-42000299D01*
X82258505Y-41832312D01*
X82472312Y-41618505D01*
X82550000Y-41502237D01*
X82627688Y-41618505D01*
X82841495Y-41832312D01*
X83092905Y-42000299D01*
X83372257Y-42116011D01*
X83668816Y-42175000D01*
X83971184Y-42175000D01*
X84267743Y-42116011D01*
X84547095Y-42000299D01*
X84798505Y-41832312D01*
X85012312Y-41618505D01*
X85180299Y-41367095D01*
X85296011Y-41087743D01*
X85355000Y-40791184D01*
X85355000Y-40488816D01*
X87365000Y-40488816D01*
X87365000Y-40791184D01*
X87423989Y-41087743D01*
X87539701Y-41367095D01*
X87707688Y-41618505D01*
X87921495Y-41832312D01*
X88172905Y-42000299D01*
X88452257Y-42116011D01*
X88748816Y-42175000D01*
X89051184Y-42175000D01*
X89347743Y-42116011D01*
X89627095Y-42000299D01*
X89878505Y-41832312D01*
X90092312Y-41618505D01*
X90170000Y-41502237D01*
X90247688Y-41618505D01*
X90461495Y-41832312D01*
X90712905Y-42000299D01*
X90992257Y-42116011D01*
X91288816Y-42175000D01*
X91591184Y-42175000D01*
X91887743Y-42116011D01*
X92167095Y-42000299D01*
X92418505Y-41832312D01*
X92632312Y-41618505D01*
X92710000Y-41502237D01*
X92787688Y-41618505D01*
X93001495Y-41832312D01*
X93252905Y-42000299D01*
X93532257Y-42116011D01*
X93828816Y-42175000D01*
X94131184Y-42175000D01*
X94427743Y-42116011D01*
X94707095Y-42000299D01*
X94958505Y-41832312D01*
X95172312Y-41618505D01*
X95340299Y-41367095D01*
X95456011Y-41087743D01*
X95515000Y-40791184D01*
X95515000Y-40488816D01*
X95456011Y-40192257D01*
X95340299Y-39912905D01*
X95172312Y-39661495D01*
X94958505Y-39447688D01*
X94707095Y-39279701D01*
X94427743Y-39163989D01*
X94131184Y-39105000D01*
X93828816Y-39105000D01*
X93532257Y-39163989D01*
X93252905Y-39279701D01*
X93001495Y-39447688D01*
X92787688Y-39661495D01*
X92710000Y-39777763D01*
X92632312Y-39661495D01*
X92418505Y-39447688D01*
X92167095Y-39279701D01*
X91887743Y-39163989D01*
X91591184Y-39105000D01*
X91288816Y-39105000D01*
X90992257Y-39163989D01*
X90712905Y-39279701D01*
X90461495Y-39447688D01*
X90247688Y-39661495D01*
X90170000Y-39777763D01*
X90092312Y-39661495D01*
X89878505Y-39447688D01*
X89627095Y-39279701D01*
X89347743Y-39163989D01*
X89051184Y-39105000D01*
X88748816Y-39105000D01*
X88452257Y-39163989D01*
X88172905Y-39279701D01*
X87921495Y-39447688D01*
X87707688Y-39661495D01*
X87539701Y-39912905D01*
X87423989Y-40192257D01*
X87365000Y-40488816D01*
X85355000Y-40488816D01*
X85296011Y-40192257D01*
X85180299Y-39912905D01*
X85012312Y-39661495D01*
X84798505Y-39447688D01*
X84547095Y-39279701D01*
X84267743Y-39163989D01*
X83971184Y-39105000D01*
X83668816Y-39105000D01*
X83372257Y-39163989D01*
X83092905Y-39279701D01*
X82841495Y-39447688D01*
X82627688Y-39661495D01*
X82550000Y-39777763D01*
X82472312Y-39661495D01*
X82258505Y-39447688D01*
X82007095Y-39279701D01*
X81727743Y-39163989D01*
X81431184Y-39105000D01*
X81128816Y-39105000D01*
X80832257Y-39163989D01*
X80552905Y-39279701D01*
X80301495Y-39447688D01*
X80087688Y-39661495D01*
X80010000Y-39777763D01*
X79932312Y-39661495D01*
X79718505Y-39447688D01*
X79467095Y-39279701D01*
X79187743Y-39163989D01*
X78891184Y-39105000D01*
X78588816Y-39105000D01*
X78292257Y-39163989D01*
X78012905Y-39279701D01*
X77761495Y-39447688D01*
X77547688Y-39661495D01*
X77379701Y-39912905D01*
X77263989Y-40192257D01*
X77205000Y-40488816D01*
X61620000Y-40488816D01*
X61620000Y-37934042D01*
X61815000Y-37934042D01*
X61815000Y-38265958D01*
X61879754Y-38591496D01*
X62006772Y-38898147D01*
X62191175Y-39174125D01*
X62425875Y-39408825D01*
X62701853Y-39593228D01*
X63008504Y-39720246D01*
X63334042Y-39785000D01*
X63665958Y-39785000D01*
X63991496Y-39720246D01*
X64298147Y-39593228D01*
X64574125Y-39408825D01*
X64808825Y-39174125D01*
X64993228Y-38898147D01*
X65120246Y-38591496D01*
X65185000Y-38265958D01*
X65185000Y-37958665D01*
X69177000Y-37958665D01*
X69177000Y-38241335D01*
X69232147Y-38518574D01*
X69340320Y-38779727D01*
X69497363Y-39014759D01*
X69697241Y-39214637D01*
X69932273Y-39371680D01*
X70193426Y-39479853D01*
X70470665Y-39535000D01*
X70753335Y-39535000D01*
X71030574Y-39479853D01*
X71291727Y-39371680D01*
X71526759Y-39214637D01*
X71726637Y-39014759D01*
X71883680Y-38779727D01*
X71991853Y-38518574D01*
X72047000Y-38241335D01*
X72047000Y-37958665D01*
X100292000Y-37958665D01*
X100292000Y-38241335D01*
X100347147Y-38518574D01*
X100455320Y-38779727D01*
X100612363Y-39014759D01*
X100812241Y-39214637D01*
X101047273Y-39371680D01*
X101308426Y-39479853D01*
X101585665Y-39535000D01*
X101868335Y-39535000D01*
X102145574Y-39479853D01*
X102406727Y-39371680D01*
X102641759Y-39214637D01*
X102841637Y-39014759D01*
X102998680Y-38779727D01*
X103106853Y-38518574D01*
X103162000Y-38241335D01*
X103162000Y-37958665D01*
X103157103Y-37934042D01*
X106265000Y-37934042D01*
X106265000Y-38265958D01*
X106329754Y-38591496D01*
X106456772Y-38898147D01*
X106641175Y-39174125D01*
X106875875Y-39408825D01*
X107151853Y-39593228D01*
X107458504Y-39720246D01*
X107784042Y-39785000D01*
X108115958Y-39785000D01*
X108441496Y-39720246D01*
X108748147Y-39593228D01*
X109024125Y-39408825D01*
X109258825Y-39174125D01*
X109443228Y-38898147D01*
X109570246Y-38591496D01*
X109635000Y-38265958D01*
X109635000Y-37934042D01*
X109570246Y-37608504D01*
X109443228Y-37301853D01*
X109258825Y-37025875D01*
X109024125Y-36791175D01*
X108748147Y-36606772D01*
X108441496Y-36479754D01*
X108115958Y-36415000D01*
X107784042Y-36415000D01*
X107458504Y-36479754D01*
X107151853Y-36606772D01*
X106875875Y-36791175D01*
X106641175Y-37025875D01*
X106456772Y-37301853D01*
X106329754Y-37608504D01*
X106265000Y-37934042D01*
X103157103Y-37934042D01*
X103106853Y-37681426D01*
X102998680Y-37420273D01*
X102841637Y-37185241D01*
X102641759Y-36985363D01*
X102406727Y-36828320D01*
X102145574Y-36720147D01*
X101868335Y-36665000D01*
X101585665Y-36665000D01*
X101308426Y-36720147D01*
X101047273Y-36828320D01*
X100812241Y-36985363D01*
X100612363Y-37185241D01*
X100455320Y-37420273D01*
X100347147Y-37681426D01*
X100292000Y-37958665D01*
X72047000Y-37958665D01*
X71991853Y-37681426D01*
X71883680Y-37420273D01*
X71726637Y-37185241D01*
X71526759Y-36985363D01*
X71291727Y-36828320D01*
X71030574Y-36720147D01*
X70753335Y-36665000D01*
X70470665Y-36665000D01*
X70193426Y-36720147D01*
X69932273Y-36828320D01*
X69697241Y-36985363D01*
X69497363Y-37185241D01*
X69340320Y-37420273D01*
X69232147Y-37681426D01*
X69177000Y-37958665D01*
X65185000Y-37958665D01*
X65185000Y-37934042D01*
X65120246Y-37608504D01*
X64993228Y-37301853D01*
X64808825Y-37025875D01*
X64574125Y-36791175D01*
X64298147Y-36606772D01*
X63991496Y-36479754D01*
X63665958Y-36415000D01*
X63334042Y-36415000D01*
X63008504Y-36479754D01*
X62701853Y-36606772D01*
X62425875Y-36791175D01*
X62191175Y-37025875D01*
X62006772Y-37301853D01*
X61879754Y-37608504D01*
X61815000Y-37934042D01*
X61620000Y-37934042D01*
X61620000Y-36220000D01*
X109830000Y-36220000D01*
X109830001Y-62840000D01*
%TA.AperFunction,Conductor*%
D20*
G36*
X109830001Y-62840000D02*
G01*
X61620000Y-62840000D01*
X61620000Y-60794042D01*
X61815000Y-60794042D01*
X61815000Y-61125958D01*
X61879754Y-61451496D01*
X62006772Y-61758147D01*
X62191175Y-62034125D01*
X62425875Y-62268825D01*
X62701853Y-62453228D01*
X63008504Y-62580246D01*
X63334042Y-62645000D01*
X63665958Y-62645000D01*
X63991496Y-62580246D01*
X64298147Y-62453228D01*
X64574125Y-62268825D01*
X64808825Y-62034125D01*
X64993228Y-61758147D01*
X65120246Y-61451496D01*
X65185000Y-61125958D01*
X65185000Y-60794042D01*
X65120246Y-60468504D01*
X64993228Y-60161853D01*
X64808825Y-59885875D01*
X64725615Y-59802665D01*
X86957000Y-59802665D01*
X86957000Y-60085335D01*
X87012147Y-60362574D01*
X87120320Y-60623727D01*
X87277363Y-60858759D01*
X87477241Y-61058637D01*
X87712273Y-61215680D01*
X87973426Y-61323853D01*
X88250665Y-61379000D01*
X88533335Y-61379000D01*
X88810574Y-61323853D01*
X89071727Y-61215680D01*
X89306759Y-61058637D01*
X89506637Y-60858759D01*
X89663680Y-60623727D01*
X89771853Y-60362574D01*
X89785684Y-60293039D01*
X94620096Y-60293039D01*
X94660754Y-60427087D01*
X94780963Y-60681420D01*
X94948481Y-60907414D01*
X95156869Y-61096385D01*
X95398119Y-61241070D01*
X95662960Y-61335909D01*
X95885000Y-61214624D01*
X95885000Y-60071000D01*
X96139000Y-60071000D01*
X96139000Y-61214624D01*
X96361040Y-61335909D01*
X96625881Y-61241070D01*
X96867131Y-61096385D01*
X97075519Y-60907414D01*
X97243037Y-60681420D01*
X97300548Y-60559740D01*
X99099000Y-60559740D01*
X99099000Y-60852260D01*
X99156068Y-61139158D01*
X99268010Y-61409411D01*
X99430525Y-61652632D01*
X99637368Y-61859475D01*
X99880589Y-62021990D01*
X100150842Y-62133932D01*
X100437740Y-62191000D01*
X100730260Y-62191000D01*
X101017158Y-62133932D01*
X101287411Y-62021990D01*
X101530632Y-61859475D01*
X101662487Y-61727620D01*
X101684498Y-61800180D01*
X101743463Y-61910494D01*
X101822815Y-62007185D01*
X101919506Y-62086537D01*
X102029820Y-62145502D01*
X102149518Y-62181812D01*
X102274000Y-62194072D01*
X102838250Y-62191000D01*
X102997000Y-62032250D01*
X102997000Y-60833000D01*
X103251000Y-60833000D01*
X103251000Y-62032250D01*
X103409750Y-62191000D01*
X103974000Y-62194072D01*
X104098482Y-62181812D01*
X104218180Y-62145502D01*
X104328494Y-62086537D01*
X104425185Y-62007185D01*
X104504537Y-61910494D01*
X104563502Y-61800180D01*
X104599812Y-61680482D01*
X104612072Y-61556000D01*
X104609000Y-60991750D01*
X104450250Y-60833000D01*
X103251000Y-60833000D01*
X102997000Y-60833000D01*
X102977000Y-60833000D01*
X102977000Y-60794042D01*
X106265000Y-60794042D01*
X106265000Y-61125958D01*
X106329754Y-61451496D01*
X106456772Y-61758147D01*
X106641175Y-62034125D01*
X106875875Y-62268825D01*
X107151853Y-62453228D01*
X107458504Y-62580246D01*
X107784042Y-62645000D01*
X108115958Y-62645000D01*
X108441496Y-62580246D01*
X108748147Y-62453228D01*
X109024125Y-62268825D01*
X109258825Y-62034125D01*
X109443228Y-61758147D01*
X109570246Y-61451496D01*
X109635000Y-61125958D01*
X109635000Y-60794042D01*
X109570246Y-60468504D01*
X109443228Y-60161853D01*
X109258825Y-59885875D01*
X109024125Y-59651175D01*
X108748147Y-59466772D01*
X108441496Y-59339754D01*
X108115958Y-59275000D01*
X107784042Y-59275000D01*
X107458504Y-59339754D01*
X107151853Y-59466772D01*
X106875875Y-59651175D01*
X106641175Y-59885875D01*
X106456772Y-60161853D01*
X106329754Y-60468504D01*
X106265000Y-60794042D01*
X102977000Y-60794042D01*
X102977000Y-60579000D01*
X102997000Y-60579000D01*
X102997000Y-59379750D01*
X103251000Y-59379750D01*
X103251000Y-60579000D01*
X104450250Y-60579000D01*
X104609000Y-60420250D01*
X104612072Y-59856000D01*
X104599812Y-59731518D01*
X104563502Y-59611820D01*
X104504537Y-59501506D01*
X104425185Y-59404815D01*
X104328494Y-59325463D01*
X104218180Y-59266498D01*
X104098482Y-59230188D01*
X103974000Y-59217928D01*
X103409750Y-59221000D01*
X103251000Y-59379750D01*
X102997000Y-59379750D01*
X102838250Y-59221000D01*
X102274000Y-59217928D01*
X102149518Y-59230188D01*
X102029820Y-59266498D01*
X101919506Y-59325463D01*
X101822815Y-59404815D01*
X101743463Y-59501506D01*
X101684498Y-59611820D01*
X101662487Y-59684380D01*
X101530632Y-59552525D01*
X101287411Y-59390010D01*
X101017158Y-59278068D01*
X100730260Y-59221000D01*
X100437740Y-59221000D01*
X100150842Y-59278068D01*
X99880589Y-59390010D01*
X99637368Y-59552525D01*
X99430525Y-59759368D01*
X99268010Y-60002589D01*
X99156068Y-60272842D01*
X99099000Y-60559740D01*
X97300548Y-60559740D01*
X97363246Y-60427087D01*
X97403904Y-60293039D01*
X97281915Y-60071000D01*
X96139000Y-60071000D01*
X95885000Y-60071000D01*
X94742085Y-60071000D01*
X94620096Y-60293039D01*
X89785684Y-60293039D01*
X89827000Y-60085335D01*
X89827000Y-59802665D01*
X89785685Y-59594961D01*
X94620096Y-59594961D01*
X94742085Y-59817000D01*
X95885000Y-59817000D01*
X95885000Y-58673376D01*
X96139000Y-58673376D01*
X96139000Y-59817000D01*
X97281915Y-59817000D01*
X97403904Y-59594961D01*
X97363246Y-59460913D01*
X97243037Y-59206580D01*
X97075519Y-58980586D01*
X96867131Y-58791615D01*
X96625881Y-58646930D01*
X96361040Y-58552091D01*
X96139000Y-58673376D01*
X95885000Y-58673376D01*
X95662960Y-58552091D01*
X95398119Y-58646930D01*
X95156869Y-58791615D01*
X94948481Y-58980586D01*
X94780963Y-59206580D01*
X94660754Y-59460913D01*
X94620096Y-59594961D01*
X89785685Y-59594961D01*
X89771853Y-59525426D01*
X89663680Y-59264273D01*
X89506637Y-59029241D01*
X89306759Y-58829363D01*
X89071727Y-58672320D01*
X88810574Y-58564147D01*
X88533335Y-58509000D01*
X88250665Y-58509000D01*
X87973426Y-58564147D01*
X87712273Y-58672320D01*
X87477241Y-58829363D01*
X87277363Y-59029241D01*
X87120320Y-59264273D01*
X87012147Y-59525426D01*
X86957000Y-59802665D01*
X64725615Y-59802665D01*
X64574125Y-59651175D01*
X64298147Y-59466772D01*
X63991496Y-59339754D01*
X63665958Y-59275000D01*
X63334042Y-59275000D01*
X63008504Y-59339754D01*
X62701853Y-59466772D01*
X62425875Y-59651175D01*
X62191175Y-59885875D01*
X62006772Y-60161853D01*
X61879754Y-60468504D01*
X61815000Y-60794042D01*
X61620000Y-60794042D01*
X61620000Y-54395000D01*
X62646928Y-54395000D01*
X62646928Y-56095000D01*
X62659188Y-56219482D01*
X62695498Y-56339180D01*
X62754463Y-56449494D01*
X62833815Y-56546185D01*
X62930506Y-56625537D01*
X63040820Y-56684502D01*
X63160518Y-56720812D01*
X63285000Y-56733072D01*
X64985000Y-56733072D01*
X65109482Y-56720812D01*
X65229180Y-56684502D01*
X65339494Y-56625537D01*
X65436185Y-56546185D01*
X65515537Y-56449494D01*
X65574502Y-56339180D01*
X65610812Y-56219482D01*
X65623072Y-56095000D01*
X65623072Y-54395000D01*
X65610812Y-54270518D01*
X65574502Y-54150820D01*
X65515537Y-54040506D01*
X65436185Y-53943815D01*
X65339494Y-53864463D01*
X65229180Y-53805498D01*
X65156620Y-53783487D01*
X65276107Y-53664000D01*
X69535928Y-53664000D01*
X69535928Y-56064000D01*
X69548188Y-56188482D01*
X69584498Y-56308180D01*
X69643463Y-56418494D01*
X69722815Y-56515185D01*
X69819506Y-56594537D01*
X69929820Y-56653502D01*
X70049518Y-56689812D01*
X70174000Y-56702072D01*
X72574000Y-56702072D01*
X72698482Y-56689812D01*
X72818180Y-56653502D01*
X72928494Y-56594537D01*
X73025185Y-56515185D01*
X73104537Y-56418494D01*
X73163502Y-56308180D01*
X73199812Y-56188482D01*
X73204391Y-56141980D01*
X75275626Y-56141980D01*
X75395514Y-56426836D01*
X75719210Y-56587699D01*
X76068069Y-56682322D01*
X76428684Y-56707067D01*
X76787198Y-56660985D01*
X77129833Y-56545846D01*
X77352486Y-56426836D01*
X77472374Y-56141980D01*
X76374000Y-55043605D01*
X75275626Y-56141980D01*
X73204391Y-56141980D01*
X73212072Y-56064000D01*
X73212072Y-54918684D01*
X74530933Y-54918684D01*
X74577015Y-55277198D01*
X74692154Y-55619833D01*
X74811164Y-55842486D01*
X75096020Y-55962374D01*
X76194395Y-54864000D01*
X76553605Y-54864000D01*
X77651980Y-55962374D01*
X77936836Y-55842486D01*
X78097699Y-55518790D01*
X78192322Y-55169931D01*
X78205583Y-54976665D01*
X86957000Y-54976665D01*
X86957000Y-55259335D01*
X87012147Y-55536574D01*
X87120320Y-55797727D01*
X87277363Y-56032759D01*
X87477241Y-56232637D01*
X87712273Y-56389680D01*
X87973426Y-56497853D01*
X88250665Y-56553000D01*
X88533335Y-56553000D01*
X88810574Y-56497853D01*
X89071727Y-56389680D01*
X89306759Y-56232637D01*
X89506637Y-56032759D01*
X89663680Y-55797727D01*
X89771853Y-55536574D01*
X89827000Y-55259335D01*
X89827000Y-54976665D01*
X94577000Y-54976665D01*
X94577000Y-55259335D01*
X94632147Y-55536574D01*
X94740320Y-55797727D01*
X94897363Y-56032759D01*
X95097241Y-56232637D01*
X95332273Y-56389680D01*
X95593426Y-56497853D01*
X95870665Y-56553000D01*
X96153335Y-56553000D01*
X96430574Y-56497853D01*
X96691727Y-56389680D01*
X96926759Y-56232637D01*
X97126637Y-56032759D01*
X97283680Y-55797727D01*
X97391853Y-55536574D01*
X97447000Y-55259335D01*
X97447000Y-54976665D01*
X97391853Y-54699426D01*
X97283680Y-54438273D01*
X97254766Y-54395000D01*
X106461928Y-54395000D01*
X106461928Y-56095000D01*
X106474188Y-56219482D01*
X106510498Y-56339180D01*
X106569463Y-56449494D01*
X106648815Y-56546185D01*
X106745506Y-56625537D01*
X106855820Y-56684502D01*
X106975518Y-56720812D01*
X107100000Y-56733072D01*
X108800000Y-56733072D01*
X108924482Y-56720812D01*
X109044180Y-56684502D01*
X109154494Y-56625537D01*
X109251185Y-56546185D01*
X109330537Y-56449494D01*
X109389502Y-56339180D01*
X109425812Y-56219482D01*
X109438072Y-56095000D01*
X109438072Y-54395000D01*
X109425812Y-54270518D01*
X109389502Y-54150820D01*
X109330537Y-54040506D01*
X109251185Y-53943815D01*
X109154494Y-53864463D01*
X109044180Y-53805498D01*
X108971620Y-53783487D01*
X109103475Y-53651632D01*
X109265990Y-53408411D01*
X109377932Y-53138158D01*
X109435000Y-52851260D01*
X109435000Y-52558740D01*
X109377932Y-52271842D01*
X109265990Y-52001589D01*
X109103475Y-51758368D01*
X108896632Y-51551525D01*
X108653411Y-51389010D01*
X108383158Y-51277068D01*
X108096260Y-51220000D01*
X107803740Y-51220000D01*
X107516842Y-51277068D01*
X107246589Y-51389010D01*
X107003368Y-51551525D01*
X106796525Y-51758368D01*
X106634010Y-52001589D01*
X106522068Y-52271842D01*
X106465000Y-52558740D01*
X106465000Y-52851260D01*
X106522068Y-53138158D01*
X106634010Y-53408411D01*
X106796525Y-53651632D01*
X106928380Y-53783487D01*
X106855820Y-53805498D01*
X106745506Y-53864463D01*
X106648815Y-53943815D01*
X106569463Y-54040506D01*
X106510498Y-54150820D01*
X106474188Y-54270518D01*
X106461928Y-54395000D01*
X97254766Y-54395000D01*
X97126637Y-54203241D01*
X96926759Y-54003363D01*
X96691727Y-53846320D01*
X96430574Y-53738147D01*
X96153335Y-53683000D01*
X95870665Y-53683000D01*
X95593426Y-53738147D01*
X95332273Y-53846320D01*
X95097241Y-54003363D01*
X94897363Y-54203241D01*
X94740320Y-54438273D01*
X94632147Y-54699426D01*
X94577000Y-54976665D01*
X89827000Y-54976665D01*
X89771853Y-54699426D01*
X89663680Y-54438273D01*
X89506637Y-54203241D01*
X89306759Y-54003363D01*
X89071727Y-53846320D01*
X88810574Y-53738147D01*
X88533335Y-53683000D01*
X88250665Y-53683000D01*
X87973426Y-53738147D01*
X87712273Y-53846320D01*
X87477241Y-54003363D01*
X87277363Y-54203241D01*
X87120320Y-54438273D01*
X87012147Y-54699426D01*
X86957000Y-54976665D01*
X78205583Y-54976665D01*
X78217067Y-54809316D01*
X78170985Y-54450802D01*
X78055846Y-54108167D01*
X77936836Y-53885514D01*
X77651980Y-53765626D01*
X76553605Y-54864000D01*
X76194395Y-54864000D01*
X75096020Y-53765626D01*
X74811164Y-53885514D01*
X74650301Y-54209210D01*
X74555678Y-54558069D01*
X74530933Y-54918684D01*
X73212072Y-54918684D01*
X73212072Y-53664000D01*
X73204392Y-53586020D01*
X75275626Y-53586020D01*
X76374000Y-54684395D01*
X77472374Y-53586020D01*
X77352486Y-53301164D01*
X77028790Y-53140301D01*
X76679931Y-53045678D01*
X76319316Y-53020933D01*
X75960802Y-53067015D01*
X75618167Y-53182154D01*
X75395514Y-53301164D01*
X75275626Y-53586020D01*
X73204392Y-53586020D01*
X73199812Y-53539518D01*
X73163502Y-53419820D01*
X73104537Y-53309506D01*
X73025185Y-53212815D01*
X72928494Y-53133463D01*
X72818180Y-53074498D01*
X72698482Y-53038188D01*
X72574000Y-53025928D01*
X70174000Y-53025928D01*
X70049518Y-53038188D01*
X69929820Y-53074498D01*
X69819506Y-53133463D01*
X69722815Y-53212815D01*
X69643463Y-53309506D01*
X69584498Y-53419820D01*
X69548188Y-53539518D01*
X69535928Y-53664000D01*
X65276107Y-53664000D01*
X65288475Y-53651632D01*
X65450990Y-53408411D01*
X65562932Y-53138158D01*
X65620000Y-52851260D01*
X65620000Y-52558740D01*
X65619197Y-52554702D01*
X81776903Y-52554702D01*
X81848486Y-52798671D01*
X82103996Y-52919571D01*
X82378184Y-52988300D01*
X82660512Y-53002217D01*
X82940130Y-52960787D01*
X83206292Y-52865603D01*
X83331514Y-52798671D01*
X83403097Y-52554702D01*
X82590000Y-51741605D01*
X81776903Y-52554702D01*
X65619197Y-52554702D01*
X65562932Y-52271842D01*
X65450990Y-52001589D01*
X65288475Y-51758368D01*
X65162619Y-51632512D01*
X81149783Y-51632512D01*
X81191213Y-51912130D01*
X81286397Y-52178292D01*
X81353329Y-52303514D01*
X81597298Y-52375097D01*
X82410395Y-51562000D01*
X82769605Y-51562000D01*
X83582702Y-52375097D01*
X83651928Y-52354785D01*
X83651928Y-52362000D01*
X83664188Y-52486482D01*
X83700498Y-52606180D01*
X83759463Y-52716494D01*
X83838815Y-52813185D01*
X83935506Y-52892537D01*
X84045820Y-52951502D01*
X84165518Y-52987812D01*
X84290000Y-53000072D01*
X85890000Y-53000072D01*
X86014482Y-52987812D01*
X86134180Y-52951502D01*
X86244494Y-52892537D01*
X86341185Y-52813185D01*
X86420537Y-52716494D01*
X86479502Y-52606180D01*
X86515812Y-52486482D01*
X86528072Y-52362000D01*
X86528072Y-50762000D01*
X86515812Y-50637518D01*
X86479502Y-50517820D01*
X86420537Y-50407506D01*
X86410850Y-50395702D01*
X89182903Y-50395702D01*
X89254486Y-50639671D01*
X89509996Y-50760571D01*
X89784184Y-50829300D01*
X90066512Y-50843217D01*
X90346130Y-50801787D01*
X90612292Y-50706603D01*
X90737514Y-50639671D01*
X90809097Y-50395702D01*
X89996000Y-49582605D01*
X89182903Y-50395702D01*
X86410850Y-50395702D01*
X86341185Y-50310815D01*
X86244494Y-50231463D01*
X86134180Y-50172498D01*
X86014482Y-50136188D01*
X85890000Y-50123928D01*
X84290000Y-50123928D01*
X84165518Y-50136188D01*
X84045820Y-50172498D01*
X83935506Y-50231463D01*
X83838815Y-50310815D01*
X83759463Y-50407506D01*
X83700498Y-50517820D01*
X83664188Y-50637518D01*
X83651928Y-50762000D01*
X83651928Y-50769215D01*
X83582702Y-50748903D01*
X82769605Y-51562000D01*
X82410395Y-51562000D01*
X81597298Y-50748903D01*
X81353329Y-50820486D01*
X81232429Y-51075996D01*
X81163700Y-51350184D01*
X81149783Y-51632512D01*
X65162619Y-51632512D01*
X65081632Y-51551525D01*
X64838411Y-51389010D01*
X64568158Y-51277068D01*
X64281260Y-51220000D01*
X63988740Y-51220000D01*
X63701842Y-51277068D01*
X63431589Y-51389010D01*
X63188368Y-51551525D01*
X62981525Y-51758368D01*
X62819010Y-52001589D01*
X62707068Y-52271842D01*
X62650000Y-52558740D01*
X62650000Y-52851260D01*
X62707068Y-53138158D01*
X62819010Y-53408411D01*
X62981525Y-53651632D01*
X63113380Y-53783487D01*
X63040820Y-53805498D01*
X62930506Y-53864463D01*
X62833815Y-53943815D01*
X62754463Y-54040506D01*
X62695498Y-54150820D01*
X62659188Y-54270518D01*
X62646928Y-54395000D01*
X61620000Y-54395000D01*
X61620000Y-50569298D01*
X81776903Y-50569298D01*
X82590000Y-51382395D01*
X83403097Y-50569298D01*
X83331514Y-50325329D01*
X83076004Y-50204429D01*
X82801816Y-50135700D01*
X82519488Y-50121783D01*
X82239870Y-50163213D01*
X81973708Y-50258397D01*
X81848486Y-50325329D01*
X81776903Y-50569298D01*
X61620000Y-50569298D01*
X61620000Y-49473512D01*
X88555783Y-49473512D01*
X88597213Y-49753130D01*
X88692397Y-50019292D01*
X88759329Y-50144514D01*
X89003298Y-50216097D01*
X89816395Y-49403000D01*
X90175605Y-49403000D01*
X90988702Y-50216097D01*
X91232671Y-50144514D01*
X91353571Y-49889004D01*
X91422300Y-49614816D01*
X91436217Y-49332488D01*
X91425724Y-49261665D01*
X93561000Y-49261665D01*
X93561000Y-49544335D01*
X93616147Y-49821574D01*
X93724320Y-50082727D01*
X93881363Y-50317759D01*
X94081241Y-50517637D01*
X94316273Y-50674680D01*
X94577426Y-50782853D01*
X94854665Y-50838000D01*
X95137335Y-50838000D01*
X95414574Y-50782853D01*
X95675727Y-50674680D01*
X95910759Y-50517637D01*
X96110637Y-50317759D01*
X96267680Y-50082727D01*
X96375853Y-49821574D01*
X96431000Y-49544335D01*
X96431000Y-49261665D01*
X96375853Y-48984426D01*
X96267680Y-48723273D01*
X96110637Y-48488241D01*
X95910759Y-48288363D01*
X95675727Y-48131320D01*
X95414574Y-48023147D01*
X95137335Y-47968000D01*
X94854665Y-47968000D01*
X94577426Y-48023147D01*
X94316273Y-48131320D01*
X94081241Y-48288363D01*
X93881363Y-48488241D01*
X93724320Y-48723273D01*
X93616147Y-48984426D01*
X93561000Y-49261665D01*
X91425724Y-49261665D01*
X91394787Y-49052870D01*
X91299603Y-48786708D01*
X91232671Y-48661486D01*
X90988702Y-48589903D01*
X90175605Y-49403000D01*
X89816395Y-49403000D01*
X89003298Y-48589903D01*
X88759329Y-48661486D01*
X88638429Y-48916996D01*
X88569700Y-49191184D01*
X88555783Y-49473512D01*
X61620000Y-49473512D01*
X61620000Y-48410298D01*
X89182903Y-48410298D01*
X89996000Y-49223395D01*
X90809097Y-48410298D01*
X90737514Y-48166329D01*
X90482004Y-48045429D01*
X90207816Y-47976700D01*
X89925488Y-47962783D01*
X89645870Y-48004213D01*
X89379708Y-48099397D01*
X89254486Y-48166329D01*
X89182903Y-48410298D01*
X61620000Y-48410298D01*
X61620000Y-47078000D01*
X62646928Y-47078000D01*
X62659188Y-47202482D01*
X62695498Y-47322180D01*
X62754463Y-47432494D01*
X62833815Y-47529185D01*
X62930506Y-47608537D01*
X63040820Y-47667502D01*
X63160518Y-47703812D01*
X63285000Y-47716072D01*
X63849250Y-47713000D01*
X64008000Y-47554250D01*
X64008000Y-46355000D01*
X64262000Y-46355000D01*
X64262000Y-47554250D01*
X64420750Y-47713000D01*
X64985000Y-47716072D01*
X65109482Y-47703812D01*
X65229180Y-47667502D01*
X65339494Y-47608537D01*
X65436185Y-47529185D01*
X65515537Y-47432494D01*
X65574502Y-47322180D01*
X65610812Y-47202482D01*
X65623072Y-47078000D01*
X65620000Y-46513750D01*
X65461250Y-46355000D01*
X64262000Y-46355000D01*
X64008000Y-46355000D01*
X62808750Y-46355000D01*
X62650000Y-46513750D01*
X62646928Y-47078000D01*
X61620000Y-47078000D01*
X61620000Y-45378000D01*
X62646928Y-45378000D01*
X62650000Y-45942250D01*
X62808750Y-46101000D01*
X64008000Y-46101000D01*
X64008000Y-46081000D01*
X64262000Y-46081000D01*
X64262000Y-46101000D01*
X65461250Y-46101000D01*
X65620000Y-45942250D01*
X65623072Y-45378000D01*
X65610812Y-45253518D01*
X65574502Y-45133820D01*
X65515537Y-45023506D01*
X65436185Y-44926815D01*
X65339494Y-44847463D01*
X65288116Y-44820000D01*
X75931928Y-44820000D01*
X75931928Y-46620000D01*
X75944188Y-46744482D01*
X75980498Y-46864180D01*
X76039463Y-46974494D01*
X76118815Y-47071185D01*
X76215506Y-47150537D01*
X76325820Y-47209502D01*
X76445518Y-47245812D01*
X76570000Y-47258072D01*
X78370000Y-47258072D01*
X78494482Y-47245812D01*
X78614180Y-47209502D01*
X78724494Y-47150537D01*
X78821185Y-47071185D01*
X78900537Y-46974494D01*
X78959502Y-46864180D01*
X78965056Y-46845873D01*
X79031495Y-46912312D01*
X79282905Y-47080299D01*
X79562257Y-47196011D01*
X79858816Y-47255000D01*
X80161184Y-47255000D01*
X80457743Y-47196011D01*
X80737095Y-47080299D01*
X80988505Y-46912312D01*
X81202312Y-46698505D01*
X81280000Y-46582237D01*
X81357688Y-46698505D01*
X81571495Y-46912312D01*
X81822905Y-47080299D01*
X82102257Y-47196011D01*
X82398816Y-47255000D01*
X82701184Y-47255000D01*
X82997743Y-47196011D01*
X83277095Y-47080299D01*
X83528505Y-46912312D01*
X83742312Y-46698505D01*
X83820000Y-46582237D01*
X83897688Y-46698505D01*
X84111495Y-46912312D01*
X84362905Y-47080299D01*
X84642257Y-47196011D01*
X84938816Y-47255000D01*
X85241184Y-47255000D01*
X85537743Y-47196011D01*
X85817095Y-47080299D01*
X86068505Y-46912312D01*
X86282312Y-46698505D01*
X86450299Y-46447095D01*
X86566011Y-46167743D01*
X86625000Y-45871184D01*
X86625000Y-45568816D01*
X88635000Y-45568816D01*
X88635000Y-45871184D01*
X88693989Y-46167743D01*
X88809701Y-46447095D01*
X88977688Y-46698505D01*
X89191495Y-46912312D01*
X89442905Y-47080299D01*
X89722257Y-47196011D01*
X90018816Y-47255000D01*
X90321184Y-47255000D01*
X90617743Y-47196011D01*
X90897095Y-47080299D01*
X91148505Y-46912312D01*
X91362312Y-46698505D01*
X91440000Y-46582237D01*
X91517688Y-46698505D01*
X91731495Y-46912312D01*
X91982905Y-47080299D01*
X92262257Y-47196011D01*
X92558816Y-47255000D01*
X92861184Y-47255000D01*
X93157743Y-47196011D01*
X93437095Y-47080299D01*
X93688505Y-46912312D01*
X93902312Y-46698505D01*
X93980000Y-46582237D01*
X94057688Y-46698505D01*
X94271495Y-46912312D01*
X94522905Y-47080299D01*
X94802257Y-47196011D01*
X95098816Y-47255000D01*
X95401184Y-47255000D01*
X95697743Y-47196011D01*
X95977095Y-47080299D01*
X95980535Y-47078000D01*
X106334928Y-47078000D01*
X106347188Y-47202482D01*
X106383498Y-47322180D01*
X106442463Y-47432494D01*
X106521815Y-47529185D01*
X106618506Y-47608537D01*
X106728820Y-47667502D01*
X106848518Y-47703812D01*
X106973000Y-47716072D01*
X107537250Y-47713000D01*
X107696000Y-47554250D01*
X107696000Y-46355000D01*
X107950000Y-46355000D01*
X107950000Y-47554250D01*
X108108750Y-47713000D01*
X108673000Y-47716072D01*
X108797482Y-47703812D01*
X108917180Y-47667502D01*
X109027494Y-47608537D01*
X109124185Y-47529185D01*
X109203537Y-47432494D01*
X109262502Y-47322180D01*
X109298812Y-47202482D01*
X109311072Y-47078000D01*
X109308000Y-46513750D01*
X109149250Y-46355000D01*
X107950000Y-46355000D01*
X107696000Y-46355000D01*
X106496750Y-46355000D01*
X106338000Y-46513750D01*
X106334928Y-47078000D01*
X95980535Y-47078000D01*
X96228505Y-46912312D01*
X96442312Y-46698505D01*
X96610299Y-46447095D01*
X96726011Y-46167743D01*
X96785000Y-45871184D01*
X96785000Y-45568816D01*
X96747045Y-45378000D01*
X106334928Y-45378000D01*
X106338000Y-45942250D01*
X106496750Y-46101000D01*
X107696000Y-46101000D01*
X107696000Y-46081000D01*
X107950000Y-46081000D01*
X107950000Y-46101000D01*
X109149250Y-46101000D01*
X109308000Y-45942250D01*
X109311072Y-45378000D01*
X109298812Y-45253518D01*
X109262502Y-45133820D01*
X109203537Y-45023506D01*
X109124185Y-44926815D01*
X109027494Y-44847463D01*
X108917180Y-44788498D01*
X108844620Y-44766487D01*
X108976475Y-44634632D01*
X109138990Y-44391411D01*
X109250932Y-44121158D01*
X109308000Y-43834260D01*
X109308000Y-43541740D01*
X109250932Y-43254842D01*
X109138990Y-42984589D01*
X108976475Y-42741368D01*
X108769632Y-42534525D01*
X108526411Y-42372010D01*
X108256158Y-42260068D01*
X107969260Y-42203000D01*
X107676740Y-42203000D01*
X107389842Y-42260068D01*
X107119589Y-42372010D01*
X106876368Y-42534525D01*
X106669525Y-42741368D01*
X106507010Y-42984589D01*
X106395068Y-43254842D01*
X106338000Y-43541740D01*
X106338000Y-43834260D01*
X106395068Y-44121158D01*
X106507010Y-44391411D01*
X106669525Y-44634632D01*
X106801380Y-44766487D01*
X106728820Y-44788498D01*
X106618506Y-44847463D01*
X106521815Y-44926815D01*
X106442463Y-45023506D01*
X106383498Y-45133820D01*
X106347188Y-45253518D01*
X106334928Y-45378000D01*
X96747045Y-45378000D01*
X96726011Y-45272257D01*
X96610299Y-44992905D01*
X96442312Y-44741495D01*
X96228505Y-44527688D01*
X95977095Y-44359701D01*
X95697743Y-44243989D01*
X95401184Y-44185000D01*
X95098816Y-44185000D01*
X94802257Y-44243989D01*
X94522905Y-44359701D01*
X94271495Y-44527688D01*
X94057688Y-44741495D01*
X93980000Y-44857763D01*
X93902312Y-44741495D01*
X93688505Y-44527688D01*
X93437095Y-44359701D01*
X93157743Y-44243989D01*
X92861184Y-44185000D01*
X92558816Y-44185000D01*
X92262257Y-44243989D01*
X91982905Y-44359701D01*
X91731495Y-44527688D01*
X91517688Y-44741495D01*
X91440000Y-44857763D01*
X91362312Y-44741495D01*
X91148505Y-44527688D01*
X90897095Y-44359701D01*
X90617743Y-44243989D01*
X90321184Y-44185000D01*
X90018816Y-44185000D01*
X89722257Y-44243989D01*
X89442905Y-44359701D01*
X89191495Y-44527688D01*
X88977688Y-44741495D01*
X88809701Y-44992905D01*
X88693989Y-45272257D01*
X88635000Y-45568816D01*
X86625000Y-45568816D01*
X86566011Y-45272257D01*
X86450299Y-44992905D01*
X86282312Y-44741495D01*
X86068505Y-44527688D01*
X85817095Y-44359701D01*
X85537743Y-44243989D01*
X85241184Y-44185000D01*
X84938816Y-44185000D01*
X84642257Y-44243989D01*
X84362905Y-44359701D01*
X84111495Y-44527688D01*
X83897688Y-44741495D01*
X83820000Y-44857763D01*
X83742312Y-44741495D01*
X83528505Y-44527688D01*
X83277095Y-44359701D01*
X82997743Y-44243989D01*
X82701184Y-44185000D01*
X82398816Y-44185000D01*
X82102257Y-44243989D01*
X81822905Y-44359701D01*
X81571495Y-44527688D01*
X81357688Y-44741495D01*
X81280000Y-44857763D01*
X81202312Y-44741495D01*
X80988505Y-44527688D01*
X80737095Y-44359701D01*
X80457743Y-44243989D01*
X80161184Y-44185000D01*
X79858816Y-44185000D01*
X79562257Y-44243989D01*
X79282905Y-44359701D01*
X79031495Y-44527688D01*
X78965056Y-44594127D01*
X78959502Y-44575820D01*
X78900537Y-44465506D01*
X78821185Y-44368815D01*
X78724494Y-44289463D01*
X78614180Y-44230498D01*
X78494482Y-44194188D01*
X78370000Y-44181928D01*
X76570000Y-44181928D01*
X76445518Y-44194188D01*
X76325820Y-44230498D01*
X76215506Y-44289463D01*
X76118815Y-44368815D01*
X76039463Y-44465506D01*
X75980498Y-44575820D01*
X75944188Y-44695518D01*
X75931928Y-44820000D01*
X65288116Y-44820000D01*
X65229180Y-44788498D01*
X65156620Y-44766487D01*
X65288475Y-44634632D01*
X65450990Y-44391411D01*
X65562932Y-44121158D01*
X65620000Y-43834260D01*
X65620000Y-43541740D01*
X65562932Y-43254842D01*
X65450990Y-42984589D01*
X65433669Y-42958665D01*
X69177000Y-42958665D01*
X69177000Y-43241335D01*
X69232147Y-43518574D01*
X69340320Y-43779727D01*
X69497363Y-44014759D01*
X69697241Y-44214637D01*
X69932273Y-44371680D01*
X70193426Y-44479853D01*
X70470665Y-44535000D01*
X70753335Y-44535000D01*
X71030574Y-44479853D01*
X71291727Y-44371680D01*
X71526759Y-44214637D01*
X71726637Y-44014759D01*
X71883680Y-43779727D01*
X71991853Y-43518574D01*
X72047000Y-43241335D01*
X72047000Y-42958665D01*
X100292000Y-42958665D01*
X100292000Y-43241335D01*
X100347147Y-43518574D01*
X100455320Y-43779727D01*
X100612363Y-44014759D01*
X100812241Y-44214637D01*
X101047273Y-44371680D01*
X101308426Y-44479853D01*
X101585665Y-44535000D01*
X101868335Y-44535000D01*
X102145574Y-44479853D01*
X102406727Y-44371680D01*
X102641759Y-44214637D01*
X102841637Y-44014759D01*
X102998680Y-43779727D01*
X103106853Y-43518574D01*
X103162000Y-43241335D01*
X103162000Y-42958665D01*
X103106853Y-42681426D01*
X102998680Y-42420273D01*
X102841637Y-42185241D01*
X102641759Y-41985363D01*
X102406727Y-41828320D01*
X102145574Y-41720147D01*
X101868335Y-41665000D01*
X101585665Y-41665000D01*
X101308426Y-41720147D01*
X101047273Y-41828320D01*
X100812241Y-41985363D01*
X100612363Y-42185241D01*
X100455320Y-42420273D01*
X100347147Y-42681426D01*
X100292000Y-42958665D01*
X72047000Y-42958665D01*
X71991853Y-42681426D01*
X71883680Y-42420273D01*
X71726637Y-42185241D01*
X71526759Y-41985363D01*
X71291727Y-41828320D01*
X71030574Y-41720147D01*
X70753335Y-41665000D01*
X70470665Y-41665000D01*
X70193426Y-41720147D01*
X69932273Y-41828320D01*
X69697241Y-41985363D01*
X69497363Y-42185241D01*
X69340320Y-42420273D01*
X69232147Y-42681426D01*
X69177000Y-42958665D01*
X65433669Y-42958665D01*
X65288475Y-42741368D01*
X65081632Y-42534525D01*
X64838411Y-42372010D01*
X64568158Y-42260068D01*
X64281260Y-42203000D01*
X63988740Y-42203000D01*
X63701842Y-42260068D01*
X63431589Y-42372010D01*
X63188368Y-42534525D01*
X62981525Y-42741368D01*
X62819010Y-42984589D01*
X62707068Y-43254842D01*
X62650000Y-43541740D01*
X62650000Y-43834260D01*
X62707068Y-44121158D01*
X62819010Y-44391411D01*
X62981525Y-44634632D01*
X63113380Y-44766487D01*
X63040820Y-44788498D01*
X62930506Y-44847463D01*
X62833815Y-44926815D01*
X62754463Y-45023506D01*
X62695498Y-45133820D01*
X62659188Y-45253518D01*
X62646928Y-45378000D01*
X61620000Y-45378000D01*
X61620000Y-40488816D01*
X77205000Y-40488816D01*
X77205000Y-40791184D01*
X77263989Y-41087743D01*
X77379701Y-41367095D01*
X77547688Y-41618505D01*
X77761495Y-41832312D01*
X78012905Y-42000299D01*
X78292257Y-42116011D01*
X78588816Y-42175000D01*
X78891184Y-42175000D01*
X79187743Y-42116011D01*
X79467095Y-42000299D01*
X79718505Y-41832312D01*
X79932312Y-41618505D01*
X80010000Y-41502237D01*
X80087688Y-41618505D01*
X80301495Y-41832312D01*
X80552905Y-42000299D01*
X80832257Y-42116011D01*
X81128816Y-42175000D01*
X81431184Y-42175000D01*
X81727743Y-42116011D01*
X82007095Y-42000299D01*
X82258505Y-41832312D01*
X82472312Y-41618505D01*
X82550000Y-41502237D01*
X82627688Y-41618505D01*
X82841495Y-41832312D01*
X83092905Y-42000299D01*
X83372257Y-42116011D01*
X83668816Y-42175000D01*
X83971184Y-42175000D01*
X84267743Y-42116011D01*
X84547095Y-42000299D01*
X84798505Y-41832312D01*
X85012312Y-41618505D01*
X85180299Y-41367095D01*
X85296011Y-41087743D01*
X85355000Y-40791184D01*
X85355000Y-40488816D01*
X87365000Y-40488816D01*
X87365000Y-40791184D01*
X87423989Y-41087743D01*
X87539701Y-41367095D01*
X87707688Y-41618505D01*
X87921495Y-41832312D01*
X88172905Y-42000299D01*
X88452257Y-42116011D01*
X88748816Y-42175000D01*
X89051184Y-42175000D01*
X89347743Y-42116011D01*
X89627095Y-42000299D01*
X89878505Y-41832312D01*
X90092312Y-41618505D01*
X90170000Y-41502237D01*
X90247688Y-41618505D01*
X90461495Y-41832312D01*
X90712905Y-42000299D01*
X90992257Y-42116011D01*
X91288816Y-42175000D01*
X91591184Y-42175000D01*
X91887743Y-42116011D01*
X92167095Y-42000299D01*
X92418505Y-41832312D01*
X92632312Y-41618505D01*
X92710000Y-41502237D01*
X92787688Y-41618505D01*
X93001495Y-41832312D01*
X93252905Y-42000299D01*
X93532257Y-42116011D01*
X93828816Y-42175000D01*
X94131184Y-42175000D01*
X94427743Y-42116011D01*
X94707095Y-42000299D01*
X94958505Y-41832312D01*
X95172312Y-41618505D01*
X95340299Y-41367095D01*
X95456011Y-41087743D01*
X95515000Y-40791184D01*
X95515000Y-40488816D01*
X95456011Y-40192257D01*
X95340299Y-39912905D01*
X95172312Y-39661495D01*
X94958505Y-39447688D01*
X94707095Y-39279701D01*
X94427743Y-39163989D01*
X94131184Y-39105000D01*
X93828816Y-39105000D01*
X93532257Y-39163989D01*
X93252905Y-39279701D01*
X93001495Y-39447688D01*
X92787688Y-39661495D01*
X92710000Y-39777763D01*
X92632312Y-39661495D01*
X92418505Y-39447688D01*
X92167095Y-39279701D01*
X91887743Y-39163989D01*
X91591184Y-39105000D01*
X91288816Y-39105000D01*
X90992257Y-39163989D01*
X90712905Y-39279701D01*
X90461495Y-39447688D01*
X90247688Y-39661495D01*
X90170000Y-39777763D01*
X90092312Y-39661495D01*
X89878505Y-39447688D01*
X89627095Y-39279701D01*
X89347743Y-39163989D01*
X89051184Y-39105000D01*
X88748816Y-39105000D01*
X88452257Y-39163989D01*
X88172905Y-39279701D01*
X87921495Y-39447688D01*
X87707688Y-39661495D01*
X87539701Y-39912905D01*
X87423989Y-40192257D01*
X87365000Y-40488816D01*
X85355000Y-40488816D01*
X85296011Y-40192257D01*
X85180299Y-39912905D01*
X85012312Y-39661495D01*
X84798505Y-39447688D01*
X84547095Y-39279701D01*
X84267743Y-39163989D01*
X83971184Y-39105000D01*
X83668816Y-39105000D01*
X83372257Y-39163989D01*
X83092905Y-39279701D01*
X82841495Y-39447688D01*
X82627688Y-39661495D01*
X82550000Y-39777763D01*
X82472312Y-39661495D01*
X82258505Y-39447688D01*
X82007095Y-39279701D01*
X81727743Y-39163989D01*
X81431184Y-39105000D01*
X81128816Y-39105000D01*
X80832257Y-39163989D01*
X80552905Y-39279701D01*
X80301495Y-39447688D01*
X80087688Y-39661495D01*
X80010000Y-39777763D01*
X79932312Y-39661495D01*
X79718505Y-39447688D01*
X79467095Y-39279701D01*
X79187743Y-39163989D01*
X78891184Y-39105000D01*
X78588816Y-39105000D01*
X78292257Y-39163989D01*
X78012905Y-39279701D01*
X77761495Y-39447688D01*
X77547688Y-39661495D01*
X77379701Y-39912905D01*
X77263989Y-40192257D01*
X77205000Y-40488816D01*
X61620000Y-40488816D01*
X61620000Y-37934042D01*
X61815000Y-37934042D01*
X61815000Y-38265958D01*
X61879754Y-38591496D01*
X62006772Y-38898147D01*
X62191175Y-39174125D01*
X62425875Y-39408825D01*
X62701853Y-39593228D01*
X63008504Y-39720246D01*
X63334042Y-39785000D01*
X63665958Y-39785000D01*
X63991496Y-39720246D01*
X64298147Y-39593228D01*
X64574125Y-39408825D01*
X64808825Y-39174125D01*
X64993228Y-38898147D01*
X65120246Y-38591496D01*
X65185000Y-38265958D01*
X65185000Y-37958665D01*
X69177000Y-37958665D01*
X69177000Y-38241335D01*
X69232147Y-38518574D01*
X69340320Y-38779727D01*
X69497363Y-39014759D01*
X69697241Y-39214637D01*
X69932273Y-39371680D01*
X70193426Y-39479853D01*
X70470665Y-39535000D01*
X70753335Y-39535000D01*
X71030574Y-39479853D01*
X71291727Y-39371680D01*
X71526759Y-39214637D01*
X71726637Y-39014759D01*
X71883680Y-38779727D01*
X71991853Y-38518574D01*
X72047000Y-38241335D01*
X72047000Y-37958665D01*
X100292000Y-37958665D01*
X100292000Y-38241335D01*
X100347147Y-38518574D01*
X100455320Y-38779727D01*
X100612363Y-39014759D01*
X100812241Y-39214637D01*
X101047273Y-39371680D01*
X101308426Y-39479853D01*
X101585665Y-39535000D01*
X101868335Y-39535000D01*
X102145574Y-39479853D01*
X102406727Y-39371680D01*
X102641759Y-39214637D01*
X102841637Y-39014759D01*
X102998680Y-38779727D01*
X103106853Y-38518574D01*
X103162000Y-38241335D01*
X103162000Y-37958665D01*
X103157103Y-37934042D01*
X106265000Y-37934042D01*
X106265000Y-38265958D01*
X106329754Y-38591496D01*
X106456772Y-38898147D01*
X106641175Y-39174125D01*
X106875875Y-39408825D01*
X107151853Y-39593228D01*
X107458504Y-39720246D01*
X107784042Y-39785000D01*
X108115958Y-39785000D01*
X108441496Y-39720246D01*
X108748147Y-39593228D01*
X109024125Y-39408825D01*
X109258825Y-39174125D01*
X109443228Y-38898147D01*
X109570246Y-38591496D01*
X109635000Y-38265958D01*
X109635000Y-37934042D01*
X109570246Y-37608504D01*
X109443228Y-37301853D01*
X109258825Y-37025875D01*
X109024125Y-36791175D01*
X108748147Y-36606772D01*
X108441496Y-36479754D01*
X108115958Y-36415000D01*
X107784042Y-36415000D01*
X107458504Y-36479754D01*
X107151853Y-36606772D01*
X106875875Y-36791175D01*
X106641175Y-37025875D01*
X106456772Y-37301853D01*
X106329754Y-37608504D01*
X106265000Y-37934042D01*
X103157103Y-37934042D01*
X103106853Y-37681426D01*
X102998680Y-37420273D01*
X102841637Y-37185241D01*
X102641759Y-36985363D01*
X102406727Y-36828320D01*
X102145574Y-36720147D01*
X101868335Y-36665000D01*
X101585665Y-36665000D01*
X101308426Y-36720147D01*
X101047273Y-36828320D01*
X100812241Y-36985363D01*
X100612363Y-37185241D01*
X100455320Y-37420273D01*
X100347147Y-37681426D01*
X100292000Y-37958665D01*
X72047000Y-37958665D01*
X71991853Y-37681426D01*
X71883680Y-37420273D01*
X71726637Y-37185241D01*
X71526759Y-36985363D01*
X71291727Y-36828320D01*
X71030574Y-36720147D01*
X70753335Y-36665000D01*
X70470665Y-36665000D01*
X70193426Y-36720147D01*
X69932273Y-36828320D01*
X69697241Y-36985363D01*
X69497363Y-37185241D01*
X69340320Y-37420273D01*
X69232147Y-37681426D01*
X69177000Y-37958665D01*
X65185000Y-37958665D01*
X65185000Y-37934042D01*
X65120246Y-37608504D01*
X64993228Y-37301853D01*
X64808825Y-37025875D01*
X64574125Y-36791175D01*
X64298147Y-36606772D01*
X63991496Y-36479754D01*
X63665958Y-36415000D01*
X63334042Y-36415000D01*
X63008504Y-36479754D01*
X62701853Y-36606772D01*
X62425875Y-36791175D01*
X62191175Y-37025875D01*
X62006772Y-37301853D01*
X61879754Y-37608504D01*
X61815000Y-37934042D01*
X61620000Y-37934042D01*
X61620000Y-36220000D01*
X109830000Y-36220000D01*
X109830001Y-62840000D01*
G37*
%TD.AperFunction*%
%TD*%
M02*
